<?xml version="1.0" encoding="utf-8" standalone="no"?>
<!DOCTYPE svg PUBLIC "-//W3C//DTD SVG 1.1//EN"
  "http://www.w3.org/Graphics/SVG/1.1/DTD/svg11.dtd">
<svg xmlns:xlink="http://www.w3.org/1999/xlink" width="460.8pt" height="345.6pt" viewBox="0 0 460.8 345.6" xmlns="http://www.w3.org/2000/svg" version="1.1">
 <metadata>
  <rdf:RDF xmlns:dc="http://purl.org/dc/elements/1.1/" xmlns:cc="http://creativecommons.org/ns#" xmlns:rdf="http://www.w3.org/1999/02/22-rdf-syntax-ns#">
   <cc:Work>
    <dc:type rdf:resource="http://purl.org/dc/dcmitype/StillImage"/>
    <dc:date>2024-10-07T21:50:23.345292</dc:date>
    <dc:format>image/svg+xml</dc:format>
    <dc:creator>
     <cc:Agent>
      <dc:title>Matplotlib v3.5.2, https://matplotlib.org/</dc:title>
     </cc:Agent>
    </dc:creator>
   </cc:Work>
  </rdf:RDF>
 </metadata>
 <defs>
  <style type="text/css">*{stroke-linejoin: round; stroke-linecap: butt}</style>
 </defs>
 <g id="figure_1">
  <g id="patch_1">
   <path d="M 0 345.6 
L 460.8 345.6 
L 460.8 0 
L 0 0 
z
" style="fill: #ffffff"/>
  </g>
  <g id="axes_1">
   <g id="patch_2">
    <path d="M 57.6 307.584 
L 414.72 307.584 
L 414.72 41.472 
L 57.6 41.472 
z
" style="fill: #ffffff"/>
   </g>
   <g id="matplotlib.axis_1">
    <g id="xtick_1">
     <g id="line2d_1">
      <path d="M 73.832727 307.584 
L 73.832727 41.472 
" clip-path="url(#pe0b520f515)" style="fill: none; stroke: #b0b0b0; stroke-width: 0.8; stroke-linecap: square"/>
     </g>
     <g id="line2d_2">
      <defs>
       <path id="m49498ab269" d="M 0 0 
L 0 3.5 
" style="stroke: #000000; stroke-width: 0.8"/>
      </defs>
      <g>
       <use xlink:href="#m49498ab269" x="73.832727" y="307.584" style="stroke: #000000; stroke-width: 0.8"/>
      </g>
     </g>
     <g id="text_1">
      <!-- 0 -->
      <g transform="translate(70.651477 322.182437)scale(0.1 -0.1)">
       <defs>
        <path id="DejaVuSans-30" d="M 2034 4250 
Q 1547 4250 1301 3770 
Q 1056 3291 1056 2328 
Q 1056 1369 1301 889 
Q 1547 409 2034 409 
Q 2525 409 2770 889 
Q 3016 1369 3016 2328 
Q 3016 3291 2770 3770 
Q 2525 4250 2034 4250 
z
M 2034 4750 
Q 2819 4750 3233 4129 
Q 3647 3509 3647 2328 
Q 3647 1150 3233 529 
Q 2819 -91 2034 -91 
Q 1250 -91 836 529 
Q 422 1150 422 2328 
Q 422 3509 836 4129 
Q 1250 4750 2034 4750 
z
" transform="scale(0.015625)"/>
       </defs>
       <use xlink:href="#DejaVuSans-30"/>
      </g>
     </g>
    </g>
    <g id="xtick_2">
     <g id="line2d_3">
      <path d="M 125.120965 307.584 
L 125.120965 41.472 
" clip-path="url(#pe0b520f515)" style="fill: none; stroke: #b0b0b0; stroke-width: 0.8; stroke-linecap: square"/>
     </g>
     <g id="line2d_4">
      <g>
       <use xlink:href="#m49498ab269" x="125.120965" y="307.584" style="stroke: #000000; stroke-width: 0.8"/>
      </g>
     </g>
     <g id="text_2">
      <!-- 200 -->
      <g transform="translate(115.577215 322.182437)scale(0.1 -0.1)">
       <defs>
        <path id="DejaVuSans-32" d="M 1228 531 
L 3431 531 
L 3431 0 
L 469 0 
L 469 531 
Q 828 903 1448 1529 
Q 2069 2156 2228 2338 
Q 2531 2678 2651 2914 
Q 2772 3150 2772 3378 
Q 2772 3750 2511 3984 
Q 2250 4219 1831 4219 
Q 1534 4219 1204 4116 
Q 875 4013 500 3803 
L 500 4441 
Q 881 4594 1212 4672 
Q 1544 4750 1819 4750 
Q 2544 4750 2975 4387 
Q 3406 4025 3406 3419 
Q 3406 3131 3298 2873 
Q 3191 2616 2906 2266 
Q 2828 2175 2409 1742 
Q 1991 1309 1228 531 
z
" transform="scale(0.015625)"/>
       </defs>
       <use xlink:href="#DejaVuSans-32"/>
       <use xlink:href="#DejaVuSans-30" x="63.623047"/>
       <use xlink:href="#DejaVuSans-30" x="127.246094"/>
      </g>
     </g>
    </g>
    <g id="xtick_3">
     <g id="line2d_5">
      <path d="M 176.409203 307.584 
L 176.409203 41.472 
" clip-path="url(#pe0b520f515)" style="fill: none; stroke: #b0b0b0; stroke-width: 0.8; stroke-linecap: square"/>
     </g>
     <g id="line2d_6">
      <g>
       <use xlink:href="#m49498ab269" x="176.409203" y="307.584" style="stroke: #000000; stroke-width: 0.8"/>
      </g>
     </g>
     <g id="text_3">
      <!-- 400 -->
      <g transform="translate(166.865453 322.182437)scale(0.1 -0.1)">
       <defs>
        <path id="DejaVuSans-34" d="M 2419 4116 
L 825 1625 
L 2419 1625 
L 2419 4116 
z
M 2253 4666 
L 3047 4666 
L 3047 1625 
L 3713 1625 
L 3713 1100 
L 3047 1100 
L 3047 0 
L 2419 0 
L 2419 1100 
L 313 1100 
L 313 1709 
L 2253 4666 
z
" transform="scale(0.015625)"/>
       </defs>
       <use xlink:href="#DejaVuSans-34"/>
       <use xlink:href="#DejaVuSans-30" x="63.623047"/>
       <use xlink:href="#DejaVuSans-30" x="127.246094"/>
      </g>
     </g>
    </g>
    <g id="xtick_4">
     <g id="line2d_7">
      <path d="M 227.697441 307.584 
L 227.697441 41.472 
" clip-path="url(#pe0b520f515)" style="fill: none; stroke: #b0b0b0; stroke-width: 0.8; stroke-linecap: square"/>
     </g>
     <g id="line2d_8">
      <g>
       <use xlink:href="#m49498ab269" x="227.697441" y="307.584" style="stroke: #000000; stroke-width: 0.8"/>
      </g>
     </g>
     <g id="text_4">
      <!-- 600 -->
      <g transform="translate(218.153691 322.182437)scale(0.1 -0.1)">
       <defs>
        <path id="DejaVuSans-36" d="M 2113 2584 
Q 1688 2584 1439 2293 
Q 1191 2003 1191 1497 
Q 1191 994 1439 701 
Q 1688 409 2113 409 
Q 2538 409 2786 701 
Q 3034 994 3034 1497 
Q 3034 2003 2786 2293 
Q 2538 2584 2113 2584 
z
M 3366 4563 
L 3366 3988 
Q 3128 4100 2886 4159 
Q 2644 4219 2406 4219 
Q 1781 4219 1451 3797 
Q 1122 3375 1075 2522 
Q 1259 2794 1537 2939 
Q 1816 3084 2150 3084 
Q 2853 3084 3261 2657 
Q 3669 2231 3669 1497 
Q 3669 778 3244 343 
Q 2819 -91 2113 -91 
Q 1303 -91 875 529 
Q 447 1150 447 2328 
Q 447 3434 972 4092 
Q 1497 4750 2381 4750 
Q 2619 4750 2861 4703 
Q 3103 4656 3366 4563 
z
" transform="scale(0.015625)"/>
       </defs>
       <use xlink:href="#DejaVuSans-36"/>
       <use xlink:href="#DejaVuSans-30" x="63.623047"/>
       <use xlink:href="#DejaVuSans-30" x="127.246094"/>
      </g>
     </g>
    </g>
    <g id="xtick_5">
     <g id="line2d_9">
      <path d="M 278.985679 307.584 
L 278.985679 41.472 
" clip-path="url(#pe0b520f515)" style="fill: none; stroke: #b0b0b0; stroke-width: 0.8; stroke-linecap: square"/>
     </g>
     <g id="line2d_10">
      <g>
       <use xlink:href="#m49498ab269" x="278.985679" y="307.584" style="stroke: #000000; stroke-width: 0.8"/>
      </g>
     </g>
     <g id="text_5">
      <!-- 800 -->
      <g transform="translate(269.441929 322.182437)scale(0.1 -0.1)">
       <defs>
        <path id="DejaVuSans-38" d="M 2034 2216 
Q 1584 2216 1326 1975 
Q 1069 1734 1069 1313 
Q 1069 891 1326 650 
Q 1584 409 2034 409 
Q 2484 409 2743 651 
Q 3003 894 3003 1313 
Q 3003 1734 2745 1975 
Q 2488 2216 2034 2216 
z
M 1403 2484 
Q 997 2584 770 2862 
Q 544 3141 544 3541 
Q 544 4100 942 4425 
Q 1341 4750 2034 4750 
Q 2731 4750 3128 4425 
Q 3525 4100 3525 3541 
Q 3525 3141 3298 2862 
Q 3072 2584 2669 2484 
Q 3125 2378 3379 2068 
Q 3634 1759 3634 1313 
Q 3634 634 3220 271 
Q 2806 -91 2034 -91 
Q 1263 -91 848 271 
Q 434 634 434 1313 
Q 434 1759 690 2068 
Q 947 2378 1403 2484 
z
M 1172 3481 
Q 1172 3119 1398 2916 
Q 1625 2713 2034 2713 
Q 2441 2713 2670 2916 
Q 2900 3119 2900 3481 
Q 2900 3844 2670 4047 
Q 2441 4250 2034 4250 
Q 1625 4250 1398 4047 
Q 1172 3844 1172 3481 
z
" transform="scale(0.015625)"/>
       </defs>
       <use xlink:href="#DejaVuSans-38"/>
       <use xlink:href="#DejaVuSans-30" x="63.623047"/>
       <use xlink:href="#DejaVuSans-30" x="127.246094"/>
      </g>
     </g>
    </g>
    <g id="xtick_6">
     <g id="line2d_11">
      <path d="M 330.273916 307.584 
L 330.273916 41.472 
" clip-path="url(#pe0b520f515)" style="fill: none; stroke: #b0b0b0; stroke-width: 0.8; stroke-linecap: square"/>
     </g>
     <g id="line2d_12">
      <g>
       <use xlink:href="#m49498ab269" x="330.273916" y="307.584" style="stroke: #000000; stroke-width: 0.8"/>
      </g>
     </g>
     <g id="text_6">
      <!-- 1000 -->
      <g transform="translate(317.548916 322.182437)scale(0.1 -0.1)">
       <defs>
        <path id="DejaVuSans-31" d="M 794 531 
L 1825 531 
L 1825 4091 
L 703 3866 
L 703 4441 
L 1819 4666 
L 2450 4666 
L 2450 531 
L 3481 531 
L 3481 0 
L 794 0 
L 794 531 
z
" transform="scale(0.015625)"/>
       </defs>
       <use xlink:href="#DejaVuSans-31"/>
       <use xlink:href="#DejaVuSans-30" x="63.623047"/>
       <use xlink:href="#DejaVuSans-30" x="127.246094"/>
       <use xlink:href="#DejaVuSans-30" x="190.869141"/>
      </g>
     </g>
    </g>
    <g id="xtick_7">
     <g id="line2d_13">
      <path d="M 381.562154 307.584 
L 381.562154 41.472 
" clip-path="url(#pe0b520f515)" style="fill: none; stroke: #b0b0b0; stroke-width: 0.8; stroke-linecap: square"/>
     </g>
     <g id="line2d_14">
      <g>
       <use xlink:href="#m49498ab269" x="381.562154" y="307.584" style="stroke: #000000; stroke-width: 0.8"/>
      </g>
     </g>
     <g id="text_7">
      <!-- 1200 -->
      <g transform="translate(368.837154 322.182437)scale(0.1 -0.1)">
       <use xlink:href="#DejaVuSans-31"/>
       <use xlink:href="#DejaVuSans-32" x="63.623047"/>
       <use xlink:href="#DejaVuSans-30" x="127.246094"/>
       <use xlink:href="#DejaVuSans-30" x="190.869141"/>
      </g>
     </g>
    </g>
    <g id="text_8">
     <!-- Iteration -->
     <g transform="translate(214.951406 335.860562)scale(0.1 -0.1)">
      <defs>
       <path id="DejaVuSans-49" d="M 628 4666 
L 1259 4666 
L 1259 0 
L 628 0 
L 628 4666 
z
" transform="scale(0.015625)"/>
       <path id="DejaVuSans-74" d="M 1172 4494 
L 1172 3500 
L 2356 3500 
L 2356 3053 
L 1172 3053 
L 1172 1153 
Q 1172 725 1289 603 
Q 1406 481 1766 481 
L 2356 481 
L 2356 0 
L 1766 0 
Q 1100 0 847 248 
Q 594 497 594 1153 
L 594 3053 
L 172 3053 
L 172 3500 
L 594 3500 
L 594 4494 
L 1172 4494 
z
" transform="scale(0.015625)"/>
       <path id="DejaVuSans-65" d="M 3597 1894 
L 3597 1613 
L 953 1613 
Q 991 1019 1311 708 
Q 1631 397 2203 397 
Q 2534 397 2845 478 
Q 3156 559 3463 722 
L 3463 178 
Q 3153 47 2828 -22 
Q 2503 -91 2169 -91 
Q 1331 -91 842 396 
Q 353 884 353 1716 
Q 353 2575 817 3079 
Q 1281 3584 2069 3584 
Q 2775 3584 3186 3129 
Q 3597 2675 3597 1894 
z
M 3022 2063 
Q 3016 2534 2758 2815 
Q 2500 3097 2075 3097 
Q 1594 3097 1305 2825 
Q 1016 2553 972 2059 
L 3022 2063 
z
" transform="scale(0.015625)"/>
       <path id="DejaVuSans-72" d="M 2631 2963 
Q 2534 3019 2420 3045 
Q 2306 3072 2169 3072 
Q 1681 3072 1420 2755 
Q 1159 2438 1159 1844 
L 1159 0 
L 581 0 
L 581 3500 
L 1159 3500 
L 1159 2956 
Q 1341 3275 1631 3429 
Q 1922 3584 2338 3584 
Q 2397 3584 2469 3576 
Q 2541 3569 2628 3553 
L 2631 2963 
z
" transform="scale(0.015625)"/>
       <path id="DejaVuSans-61" d="M 2194 1759 
Q 1497 1759 1228 1600 
Q 959 1441 959 1056 
Q 959 750 1161 570 
Q 1363 391 1709 391 
Q 2188 391 2477 730 
Q 2766 1069 2766 1631 
L 2766 1759 
L 2194 1759 
z
M 3341 1997 
L 3341 0 
L 2766 0 
L 2766 531 
Q 2569 213 2275 61 
Q 1981 -91 1556 -91 
Q 1019 -91 701 211 
Q 384 513 384 1019 
Q 384 1609 779 1909 
Q 1175 2209 1959 2209 
L 2766 2209 
L 2766 2266 
Q 2766 2663 2505 2880 
Q 2244 3097 1772 3097 
Q 1472 3097 1187 3025 
Q 903 2953 641 2809 
L 641 3341 
Q 956 3463 1253 3523 
Q 1550 3584 1831 3584 
Q 2591 3584 2966 3190 
Q 3341 2797 3341 1997 
z
" transform="scale(0.015625)"/>
       <path id="DejaVuSans-69" d="M 603 3500 
L 1178 3500 
L 1178 0 
L 603 0 
L 603 3500 
z
M 603 4863 
L 1178 4863 
L 1178 4134 
L 603 4134 
L 603 4863 
z
" transform="scale(0.015625)"/>
       <path id="DejaVuSans-6f" d="M 1959 3097 
Q 1497 3097 1228 2736 
Q 959 2375 959 1747 
Q 959 1119 1226 758 
Q 1494 397 1959 397 
Q 2419 397 2687 759 
Q 2956 1122 2956 1747 
Q 2956 2369 2687 2733 
Q 2419 3097 1959 3097 
z
M 1959 3584 
Q 2709 3584 3137 3096 
Q 3566 2609 3566 1747 
Q 3566 888 3137 398 
Q 2709 -91 1959 -91 
Q 1206 -91 779 398 
Q 353 888 353 1747 
Q 353 2609 779 3096 
Q 1206 3584 1959 3584 
z
" transform="scale(0.015625)"/>
       <path id="DejaVuSans-6e" d="M 3513 2113 
L 3513 0 
L 2938 0 
L 2938 2094 
Q 2938 2591 2744 2837 
Q 2550 3084 2163 3084 
Q 1697 3084 1428 2787 
Q 1159 2491 1159 1978 
L 1159 0 
L 581 0 
L 581 3500 
L 1159 3500 
L 1159 2956 
Q 1366 3272 1645 3428 
Q 1925 3584 2291 3584 
Q 2894 3584 3203 3211 
Q 3513 2838 3513 2113 
z
" transform="scale(0.015625)"/>
      </defs>
      <use xlink:href="#DejaVuSans-49"/>
      <use xlink:href="#DejaVuSans-74" x="29.492188"/>
      <use xlink:href="#DejaVuSans-65" x="68.701172"/>
      <use xlink:href="#DejaVuSans-72" x="130.224609"/>
      <use xlink:href="#DejaVuSans-61" x="171.337891"/>
      <use xlink:href="#DejaVuSans-74" x="232.617188"/>
      <use xlink:href="#DejaVuSans-69" x="271.826172"/>
      <use xlink:href="#DejaVuSans-6f" x="299.609375"/>
      <use xlink:href="#DejaVuSans-6e" x="360.791016"/>
     </g>
    </g>
   </g>
   <g id="matplotlib.axis_2">
    <g id="ytick_1">
     <g id="line2d_15">
      <path d="M 57.6 307.584 
L 414.72 307.584 
" clip-path="url(#pe0b520f515)" style="fill: none; stroke: #b0b0b0; stroke-width: 0.8; stroke-linecap: square"/>
     </g>
     <g id="line2d_16">
      <defs>
       <path id="m9cb73ccd3c" d="M 0 0 
L -3.5 0 
" style="stroke: #000000; stroke-width: 0.8"/>
      </defs>
      <g>
       <use xlink:href="#m9cb73ccd3c" x="57.6" y="307.584" style="stroke: #000000; stroke-width: 0.8"/>
      </g>
     </g>
     <g id="text_9">
      <!-- 0.000 -->
      <g transform="translate(21.971875 311.383219)scale(0.1 -0.1)">
       <defs>
        <path id="DejaVuSans-2e" d="M 684 794 
L 1344 794 
L 1344 0 
L 684 0 
L 684 794 
z
" transform="scale(0.015625)"/>
       </defs>
       <use xlink:href="#DejaVuSans-30"/>
       <use xlink:href="#DejaVuSans-2e" x="63.623047"/>
       <use xlink:href="#DejaVuSans-30" x="95.410156"/>
       <use xlink:href="#DejaVuSans-30" x="159.033203"/>
       <use xlink:href="#DejaVuSans-30" x="222.65625"/>
      </g>
     </g>
    </g>
    <g id="ytick_2">
     <g id="line2d_17">
      <path d="M 57.6 274.32 
L 414.72 274.32 
" clip-path="url(#pe0b520f515)" style="fill: none; stroke: #b0b0b0; stroke-width: 0.8; stroke-linecap: square"/>
     </g>
     <g id="line2d_18">
      <g>
       <use xlink:href="#m9cb73ccd3c" x="57.6" y="274.32" style="stroke: #000000; stroke-width: 0.8"/>
      </g>
     </g>
     <g id="text_10">
      <!-- 0.005 -->
      <g transform="translate(21.971875 278.119219)scale(0.1 -0.1)">
       <defs>
        <path id="DejaVuSans-35" d="M 691 4666 
L 3169 4666 
L 3169 4134 
L 1269 4134 
L 1269 2991 
Q 1406 3038 1543 3061 
Q 1681 3084 1819 3084 
Q 2600 3084 3056 2656 
Q 3513 2228 3513 1497 
Q 3513 744 3044 326 
Q 2575 -91 1722 -91 
Q 1428 -91 1123 -41 
Q 819 9 494 109 
L 494 744 
Q 775 591 1075 516 
Q 1375 441 1709 441 
Q 2250 441 2565 725 
Q 2881 1009 2881 1497 
Q 2881 1984 2565 2268 
Q 2250 2553 1709 2553 
Q 1456 2553 1204 2497 
Q 953 2441 691 2322 
L 691 4666 
z
" transform="scale(0.015625)"/>
       </defs>
       <use xlink:href="#DejaVuSans-30"/>
       <use xlink:href="#DejaVuSans-2e" x="63.623047"/>
       <use xlink:href="#DejaVuSans-30" x="95.410156"/>
       <use xlink:href="#DejaVuSans-30" x="159.033203"/>
       <use xlink:href="#DejaVuSans-35" x="222.65625"/>
      </g>
     </g>
    </g>
    <g id="ytick_3">
     <g id="line2d_19">
      <path d="M 57.6 241.056 
L 414.72 241.056 
" clip-path="url(#pe0b520f515)" style="fill: none; stroke: #b0b0b0; stroke-width: 0.8; stroke-linecap: square"/>
     </g>
     <g id="line2d_20">
      <g>
       <use xlink:href="#m9cb73ccd3c" x="57.6" y="241.056" style="stroke: #000000; stroke-width: 0.8"/>
      </g>
     </g>
     <g id="text_11">
      <!-- 0.010 -->
      <g transform="translate(21.971875 244.855219)scale(0.1 -0.1)">
       <use xlink:href="#DejaVuSans-30"/>
       <use xlink:href="#DejaVuSans-2e" x="63.623047"/>
       <use xlink:href="#DejaVuSans-30" x="95.410156"/>
       <use xlink:href="#DejaVuSans-31" x="159.033203"/>
       <use xlink:href="#DejaVuSans-30" x="222.65625"/>
      </g>
     </g>
    </g>
    <g id="ytick_4">
     <g id="line2d_21">
      <path d="M 57.6 207.792 
L 414.72 207.792 
" clip-path="url(#pe0b520f515)" style="fill: none; stroke: #b0b0b0; stroke-width: 0.8; stroke-linecap: square"/>
     </g>
     <g id="line2d_22">
      <g>
       <use xlink:href="#m9cb73ccd3c" x="57.6" y="207.792" style="stroke: #000000; stroke-width: 0.8"/>
      </g>
     </g>
     <g id="text_12">
      <!-- 0.015 -->
      <g transform="translate(21.971875 211.591219)scale(0.1 -0.1)">
       <use xlink:href="#DejaVuSans-30"/>
       <use xlink:href="#DejaVuSans-2e" x="63.623047"/>
       <use xlink:href="#DejaVuSans-30" x="95.410156"/>
       <use xlink:href="#DejaVuSans-31" x="159.033203"/>
       <use xlink:href="#DejaVuSans-35" x="222.65625"/>
      </g>
     </g>
    </g>
    <g id="ytick_5">
     <g id="line2d_23">
      <path d="M 57.6 174.528 
L 414.72 174.528 
" clip-path="url(#pe0b520f515)" style="fill: none; stroke: #b0b0b0; stroke-width: 0.8; stroke-linecap: square"/>
     </g>
     <g id="line2d_24">
      <g>
       <use xlink:href="#m9cb73ccd3c" x="57.6" y="174.528" style="stroke: #000000; stroke-width: 0.8"/>
      </g>
     </g>
     <g id="text_13">
      <!-- 0.020 -->
      <g transform="translate(21.971875 178.327219)scale(0.1 -0.1)">
       <use xlink:href="#DejaVuSans-30"/>
       <use xlink:href="#DejaVuSans-2e" x="63.623047"/>
       <use xlink:href="#DejaVuSans-30" x="95.410156"/>
       <use xlink:href="#DejaVuSans-32" x="159.033203"/>
       <use xlink:href="#DejaVuSans-30" x="222.65625"/>
      </g>
     </g>
    </g>
    <g id="ytick_6">
     <g id="line2d_25">
      <path d="M 57.6 141.264 
L 414.72 141.264 
" clip-path="url(#pe0b520f515)" style="fill: none; stroke: #b0b0b0; stroke-width: 0.8; stroke-linecap: square"/>
     </g>
     <g id="line2d_26">
      <g>
       <use xlink:href="#m9cb73ccd3c" x="57.6" y="141.264" style="stroke: #000000; stroke-width: 0.8"/>
      </g>
     </g>
     <g id="text_14">
      <!-- 0.025 -->
      <g transform="translate(21.971875 145.063219)scale(0.1 -0.1)">
       <use xlink:href="#DejaVuSans-30"/>
       <use xlink:href="#DejaVuSans-2e" x="63.623047"/>
       <use xlink:href="#DejaVuSans-30" x="95.410156"/>
       <use xlink:href="#DejaVuSans-32" x="159.033203"/>
       <use xlink:href="#DejaVuSans-35" x="222.65625"/>
      </g>
     </g>
    </g>
    <g id="ytick_7">
     <g id="line2d_27">
      <path d="M 57.6 108 
L 414.72 108 
" clip-path="url(#pe0b520f515)" style="fill: none; stroke: #b0b0b0; stroke-width: 0.8; stroke-linecap: square"/>
     </g>
     <g id="line2d_28">
      <g>
       <use xlink:href="#m9cb73ccd3c" x="57.6" y="108" style="stroke: #000000; stroke-width: 0.8"/>
      </g>
     </g>
     <g id="text_15">
      <!-- 0.030 -->
      <g transform="translate(21.971875 111.799219)scale(0.1 -0.1)">
       <defs>
        <path id="DejaVuSans-33" d="M 2597 2516 
Q 3050 2419 3304 2112 
Q 3559 1806 3559 1356 
Q 3559 666 3084 287 
Q 2609 -91 1734 -91 
Q 1441 -91 1130 -33 
Q 819 25 488 141 
L 488 750 
Q 750 597 1062 519 
Q 1375 441 1716 441 
Q 2309 441 2620 675 
Q 2931 909 2931 1356 
Q 2931 1769 2642 2001 
Q 2353 2234 1838 2234 
L 1294 2234 
L 1294 2753 
L 1863 2753 
Q 2328 2753 2575 2939 
Q 2822 3125 2822 3475 
Q 2822 3834 2567 4026 
Q 2313 4219 1838 4219 
Q 1578 4219 1281 4162 
Q 984 4106 628 3988 
L 628 4550 
Q 988 4650 1302 4700 
Q 1616 4750 1894 4750 
Q 2613 4750 3031 4423 
Q 3450 4097 3450 3541 
Q 3450 3153 3228 2886 
Q 3006 2619 2597 2516 
z
" transform="scale(0.015625)"/>
       </defs>
       <use xlink:href="#DejaVuSans-30"/>
       <use xlink:href="#DejaVuSans-2e" x="63.623047"/>
       <use xlink:href="#DejaVuSans-30" x="95.410156"/>
       <use xlink:href="#DejaVuSans-33" x="159.033203"/>
       <use xlink:href="#DejaVuSans-30" x="222.65625"/>
      </g>
     </g>
    </g>
    <g id="ytick_8">
     <g id="line2d_29">
      <path d="M 57.6 74.736 
L 414.72 74.736 
" clip-path="url(#pe0b520f515)" style="fill: none; stroke: #b0b0b0; stroke-width: 0.8; stroke-linecap: square"/>
     </g>
     <g id="line2d_30">
      <g>
       <use xlink:href="#m9cb73ccd3c" x="57.6" y="74.736" style="stroke: #000000; stroke-width: 0.8"/>
      </g>
     </g>
     <g id="text_16">
      <!-- 0.035 -->
      <g transform="translate(21.971875 78.535219)scale(0.1 -0.1)">
       <use xlink:href="#DejaVuSans-30"/>
       <use xlink:href="#DejaVuSans-2e" x="63.623047"/>
       <use xlink:href="#DejaVuSans-30" x="95.410156"/>
       <use xlink:href="#DejaVuSans-33" x="159.033203"/>
       <use xlink:href="#DejaVuSans-35" x="222.65625"/>
      </g>
     </g>
    </g>
    <g id="ytick_9">
     <g id="line2d_31">
      <path d="M 57.6 41.472 
L 414.72 41.472 
" clip-path="url(#pe0b520f515)" style="fill: none; stroke: #b0b0b0; stroke-width: 0.8; stroke-linecap: square"/>
     </g>
     <g id="line2d_32">
      <g>
       <use xlink:href="#m9cb73ccd3c" x="57.6" y="41.472" style="stroke: #000000; stroke-width: 0.8"/>
      </g>
     </g>
     <g id="text_17">
      <!-- 0.040 -->
      <g transform="translate(21.971875 45.271219)scale(0.1 -0.1)">
       <use xlink:href="#DejaVuSans-30"/>
       <use xlink:href="#DejaVuSans-2e" x="63.623047"/>
       <use xlink:href="#DejaVuSans-30" x="95.410156"/>
       <use xlink:href="#DejaVuSans-34" x="159.033203"/>
       <use xlink:href="#DejaVuSans-30" x="222.65625"/>
      </g>
     </g>
    </g>
    <g id="text_18">
     <!-- Time (s) -->
     <g transform="translate(15.892187 194.856906)rotate(-90)scale(0.1 -0.1)">
      <defs>
       <path id="DejaVuSans-54" d="M -19 4666 
L 3928 4666 
L 3928 4134 
L 2272 4134 
L 2272 0 
L 1638 0 
L 1638 4134 
L -19 4134 
L -19 4666 
z
" transform="scale(0.015625)"/>
       <path id="DejaVuSans-6d" d="M 3328 2828 
Q 3544 3216 3844 3400 
Q 4144 3584 4550 3584 
Q 5097 3584 5394 3201 
Q 5691 2819 5691 2113 
L 5691 0 
L 5113 0 
L 5113 2094 
Q 5113 2597 4934 2840 
Q 4756 3084 4391 3084 
Q 3944 3084 3684 2787 
Q 3425 2491 3425 1978 
L 3425 0 
L 2847 0 
L 2847 2094 
Q 2847 2600 2669 2842 
Q 2491 3084 2119 3084 
Q 1678 3084 1418 2786 
Q 1159 2488 1159 1978 
L 1159 0 
L 581 0 
L 581 3500 
L 1159 3500 
L 1159 2956 
Q 1356 3278 1631 3431 
Q 1906 3584 2284 3584 
Q 2666 3584 2933 3390 
Q 3200 3197 3328 2828 
z
" transform="scale(0.015625)"/>
       <path id="DejaVuSans-20" transform="scale(0.015625)"/>
       <path id="DejaVuSans-28" d="M 1984 4856 
Q 1566 4138 1362 3434 
Q 1159 2731 1159 2009 
Q 1159 1288 1364 580 
Q 1569 -128 1984 -844 
L 1484 -844 
Q 1016 -109 783 600 
Q 550 1309 550 2009 
Q 550 2706 781 3412 
Q 1013 4119 1484 4856 
L 1984 4856 
z
" transform="scale(0.015625)"/>
       <path id="DejaVuSans-73" d="M 2834 3397 
L 2834 2853 
Q 2591 2978 2328 3040 
Q 2066 3103 1784 3103 
Q 1356 3103 1142 2972 
Q 928 2841 928 2578 
Q 928 2378 1081 2264 
Q 1234 2150 1697 2047 
L 1894 2003 
Q 2506 1872 2764 1633 
Q 3022 1394 3022 966 
Q 3022 478 2636 193 
Q 2250 -91 1575 -91 
Q 1294 -91 989 -36 
Q 684 19 347 128 
L 347 722 
Q 666 556 975 473 
Q 1284 391 1588 391 
Q 1994 391 2212 530 
Q 2431 669 2431 922 
Q 2431 1156 2273 1281 
Q 2116 1406 1581 1522 
L 1381 1569 
Q 847 1681 609 1914 
Q 372 2147 372 2553 
Q 372 3047 722 3315 
Q 1072 3584 1716 3584 
Q 2034 3584 2315 3537 
Q 2597 3491 2834 3397 
z
" transform="scale(0.015625)"/>
       <path id="DejaVuSans-29" d="M 513 4856 
L 1013 4856 
Q 1481 4119 1714 3412 
Q 1947 2706 1947 2009 
Q 1947 1309 1714 600 
Q 1481 -109 1013 -844 
L 513 -844 
Q 928 -128 1133 580 
Q 1338 1288 1338 2009 
Q 1338 2731 1133 3434 
Q 928 4138 513 4856 
z
" transform="scale(0.015625)"/>
      </defs>
      <use xlink:href="#DejaVuSans-54"/>
      <use xlink:href="#DejaVuSans-69" x="57.958984"/>
      <use xlink:href="#DejaVuSans-6d" x="85.742188"/>
      <use xlink:href="#DejaVuSans-65" x="183.154297"/>
      <use xlink:href="#DejaVuSans-20" x="244.677734"/>
      <use xlink:href="#DejaVuSans-28" x="276.464844"/>
      <use xlink:href="#DejaVuSans-73" x="315.478516"/>
      <use xlink:href="#DejaVuSans-29" x="367.578125"/>
     </g>
    </g>
   </g>
   <g id="line2d_33">
    <path d="M 73.832727 127.284616 
L 74.089168 126.704084 
L 74.34561 109.351591 
L 74.602051 120.072387 
L 74.858492 162.067324 
L 75.114933 159.142461 
L 75.371374 157.751406 
L 75.627816 121.544335 
L 75.884257 136.766627 
L 76.397139 126.342442 
L 76.65358 148.102849 
L 77.166463 141.398188 
L 77.679345 161.880158 
L 77.935786 137.014067 
L 78.192227 126.042659 
L 78.448669 154.507727 
L 78.70511 138.07996 
L 78.961551 153.771753 
L 79.217992 147.046473 
L 79.474433 122.710156 
L 79.730875 134.225613 
L 79.987316 136.608012 
L 80.243757 117.786743 
L 80.500198 156.951986 
L 80.756639 144.527665 
L 81.013081 118.367274 
L 81.269522 132.569671 
L 81.525963 156.901229 
L 81.782404 151.698654 
L 82.038845 140.000789 
L 82.295287 149.386045 
L 82.551728 148.423252 
L 82.808169 147.006819 
L 83.06461 156.861576 
L 83.321051 149.411424 
L 83.577492 151.421077 
L 83.833934 156.845714 
L 84.090375 143.066819 
L 84.346816 136.228922 
L 84.859698 173.86353 
L 85.11614 161.951535 
L 85.372581 131.134204 
L 85.629022 159.50569 
L 85.885463 154.182566 
L 86.141904 125.011661 
L 86.398346 163.011084 
L 86.654787 117.539303 
L 86.911228 95.899443 
L 87.167669 106.878781 
L 87.42411 129.698738 
L 87.680551 165.845536 
L 87.936993 128.003142 
L 88.449875 103.430489 
L 88.706316 101.945852 
L 88.962757 93.943719 
L 89.219199 134.333471 
L 89.47564 114.809537 
L 89.732081 114.428861 
L 89.988522 115.012564 
L 90.244963 111.700681 
L 90.501405 151.774789 
L 90.757846 103.286149 
L 91.014287 98.055023 
L 91.270728 164.024634 
L 91.527169 129.056346 
L 91.783611 175.649536 
L 92.040052 142.625869 
L 92.296493 148.829306 
L 92.552934 139.477359 
L 92.809375 162.348072 
L 93.065816 139.934171 
L 93.322258 136.190854 
L 93.578699 116.524166 
L 93.83514 164.682887 
L 94.091581 159.316938 
L 94.348022 147.325635 
L 94.604464 163.466309 
L 94.860905 159.683339 
L 95.117346 162.425794 
L 95.373787 163.835882 
L 95.630228 163.800987 
L 96.143111 117.942186 
L 96.399552 132.966209 
L 96.655993 154.501383 
L 96.912434 148.183743 
L 97.168875 178.951902 
L 97.425317 180.718875 
L 97.681758 163.835882 
L 97.938199 177.472023 
L 98.19464 142.403808 
L 98.707523 136.788833 
L 98.963964 147.441424 
L 99.476846 98.264395 
L 99.733287 112.300246 
L 99.989729 117.686815 
L 100.24617 105.947711 
L 100.502611 105.298975 
L 100.759052 103.282977 
L 101.271935 140.722488 
L 101.528376 98.592728 
L 101.784817 89.513599 
L 102.041258 150.808823 
L 102.297699 171.882427 
L 102.55414 134.439743 
L 102.810582 166.905085 
L 103.067023 135.77211 
L 103.323464 137.428052 
L 103.579905 134.620565 
L 103.836346 128.242651 
L 104.092788 116.946083 
L 104.349229 156.060569 
L 104.60567 134.182787 
L 104.862111 125.944318 
L 105.118552 133.142272 
L 105.374994 177.976419 
L 105.631435 128.383818 
L 105.887876 117.458409 
L 106.144317 129.923971 
L 106.400758 133.491225 
L 106.657199 131.429229 
L 106.913641 180.969487 
L 107.170082 146.908477 
L 107.426523 154.003331 
L 107.682964 141.433084 
L 107.939405 156.236632 
L 108.195847 147.703139 
L 108.452288 173.373409 
L 108.708729 183.121894 
L 108.96517 178.063658 
L 109.221611 178.109656 
L 109.478053 146.526215 
L 109.734494 173.254448 
L 109.990935 138.132303 
L 110.247376 165.924843 
L 110.503817 178.488746 
L 110.760259 138.880967 
L 111.0167 147.431907 
L 111.273141 147.419218 
L 111.786023 187.080927 
L 112.042464 188.368882 
L 112.298906 190.976514 
L 112.555347 173.40196 
L 112.811788 201.303944 
L 113.068229 204.422317 
L 113.32467 176.100003 
L 113.581112 196.382117 
L 113.837553 198.40446 
L 114.093994 182.858593 
L 114.350435 138.965033 
L 114.606876 189.323745 
L 114.863318 152.82958 
L 115.119759 200.577487 
L 115.3762 207.234563 
L 115.632641 192.194678 
L 115.889082 165.028668 
L 116.145523 194.025096 
L 116.401965 196.480458 
L 116.658406 145.944098 
L 116.914847 161.453483 
L 117.171288 160.985569 
L 117.684171 120.495889 
L 117.940612 160.517654 
L 118.197053 179.735461 
L 118.453494 158.208218 
L 118.709935 214.013773 
L 118.966377 212.429208 
L 119.222818 202.189016 
L 119.7357 171.097282 
L 119.992141 169.860084 
L 120.248583 191.330226 
L 120.505024 168.522959 
L 120.761465 170.44696 
L 121.017906 182.677771 
L 121.274347 180.376266 
L 121.530788 150.371045 
L 121.78723 167.921807 
L 122.043671 130.64567 
L 122.300112 147.33991 
L 122.556553 102.347148 
L 122.812994 137.58984 
L 123.069436 120.559335 
L 123.325877 170.167797 
L 123.582318 170.55006 
L 124.351642 102.394732 
L 124.608083 109.131116 
L 124.864524 187.666217 
L 125.377406 152.312494 
L 125.633847 202.541142 
L 125.890289 202.515763 
L 126.14673 169.117765 
L 126.403171 150.712068 
L 126.916053 205.098017 
L 127.172495 186.573359 
L 127.428936 146.201054 
L 127.685377 146.145539 
L 127.941818 161.758024 
L 128.198259 150.677172 
L 128.454701 192.705419 
L 128.711142 179.086725 
L 129.224024 200.453767 
L 129.480465 131.600533 
L 129.993348 165.374449 
L 130.249789 154.07788 
L 130.50623 169.458788 
L 130.762671 156.496761 
L 131.019112 155.855956 
L 131.275554 153.19598 
L 131.531995 154.149257 
L 131.788436 189.398294 
L 132.044877 201.955852 
L 132.301318 155.408661 
L 132.55776 190.700524 
L 132.814201 153.050055 
L 133.070642 161.913467 
L 133.327083 159.697614 
L 133.583524 162.920673 
L 133.839966 180.796596 
L 134.096407 176.471162 
L 134.352848 174.214069 
L 134.609289 159.494587 
L 134.86573 155.221495 
L 135.122171 135.340677 
L 135.378613 133.725975 
L 135.635054 164.283177 
L 135.891495 166.576751 
L 136.147936 149.644588 
L 136.404377 144.150161 
L 136.660819 153.795546 
L 136.91726 149.914234 
L 137.173701 167.379344 
L 137.430142 141.805829 
L 137.686583 137.378881 
L 138.199466 163.823193 
L 138.455907 153.348251 
L 138.712348 176.003247 
L 138.968789 172.63109 
L 139.225231 144.597455 
L 139.481672 138.290918 
L 139.738113 153.165844 
L 139.994554 142.728969 
L 140.250995 144.299259 
L 140.507436 155.513347 
L 140.763878 172.524818 
L 141.020319 144.372222 
L 141.533201 131.054897 
L 141.789642 174.615365 
L 142.046084 170.835567 
L 142.302525 140.578148 
L 142.558966 155.787751 
L 142.815407 178.152482 
L 143.071848 161.112461 
L 143.32829 168.158144 
L 143.584731 190.892448 
L 143.841172 139.870725 
L 144.097613 152.195119 
L 144.354054 134.258922 
L 144.610495 153.996987 
L 144.866937 137.297988 
L 145.123378 179.32782 
L 145.63626 155.448315 
L 145.892701 152.445731 
L 146.149143 173.524093 
L 146.405584 180.798182 
L 146.662025 176.063521 
L 146.918466 131.316612 
L 147.431349 102.155223 
L 147.68779 164.955705 
L 147.944231 136.387537 
L 148.200672 153.376802 
L 148.457113 132.393608 
L 148.713555 145.826722 
L 148.969996 133.150203 
L 149.226437 152.544072 
L 149.482878 150.194983 
L 149.739319 180.328682 
L 149.99576 140.065821 
L 150.252202 131.532328 
L 150.508643 141.26971 
L 150.765084 121.736259 
L 151.021525 128.16493 
L 151.534408 149.435216 
L 151.790849 152.168155 
L 152.04729 135.511982 
L 152.303731 108.932847 
L 152.560172 135.592875 
L 152.816614 134.377884 
L 153.073055 161.815126 
L 153.329496 118.378377 
L 153.842378 110.181148 
L 154.098819 116.392516 
L 154.355261 129.251443 
L 154.611702 134.081273 
L 154.868143 167.891671 
L 155.124584 147.617487 
L 155.381025 191.934549 
L 155.637467 200.644105 
L 155.893908 145.777552 
L 156.150349 195.84917 
L 156.40679 158.785577 
L 156.919673 149.514524 
L 157.176114 153.914507 
L 157.432555 170.083731 
L 157.688996 162.378209 
L 157.945437 172.653296 
L 158.201879 112.124183 
L 158.45832 121.358755 
L 158.714761 170.044078 
L 158.971202 161.285351 
L 159.227643 188.751144 
L 159.484084 168.965495 
L 159.740526 207.374144 
L 159.996967 139.534461 
L 160.253408 125.709568 
L 160.509849 144.004235 
L 160.76629 144.572077 
L 161.022732 165.433136 
L 161.279173 153.851061 
L 161.535614 180.407989 
L 162.048496 163.342589 
L 162.304938 142.575113 
L 162.561379 142.990684 
L 162.81782 179.077208 
L 163.074261 138.641458 
L 163.330702 117.318828 
L 163.587143 134.763318 
L 163.843585 170.619851 
L 164.100026 150.494765 
L 164.356467 156.049466 
L 164.612908 164.124562 
L 164.869349 159.872091 
L 165.125791 170.626195 
L 165.382232 153.405352 
L 165.638673 199.778067 
L 165.895114 170.957701 
L 166.151555 184.106894 
L 166.407997 125.676258 
L 166.664438 112.644441 
L 166.920879 159.791197 
L 167.17732 152.150707 
L 167.433761 156.412695 
L 167.690202 197.90165 
L 168.459526 156.230288 
L 168.715967 91.363051 
L 168.972408 147.446183 
L 169.22885 174.093521 
L 169.485291 132.268303 
L 169.741732 171.655607 
L 169.998173 156.850473 
L 170.254614 125.525574 
L 170.511056 126.501057 
L 170.767497 114.966566 
L 171.023938 149.774652 
L 171.280379 115.781848 
L 171.53682 151.497213 
L 171.793262 79.708013 
L 172.049703 107.081809 
L 172.819026 142.314984 
L 173.075467 195.322568 
L 173.331909 198.76293 
L 173.58835 140.354501 
L 173.844791 121.039939 
L 174.101232 146.473872 
L 174.357673 159.604031 
L 174.614115 149.666794 
L 174.870556 148.975232 
L 175.126997 105.544828 
L 175.383438 144.987648 
L 175.639879 145.219226 
L 175.896321 153.00247 
L 176.152762 154.76627 
L 176.665644 209.693097 
L 176.922085 210.278387 
L 177.434968 166.077114 
L 177.691409 200.429975 
L 177.94785 168.779915 
L 178.204291 180.241443 
L 178.460732 160.038636 
L 178.717174 160.124289 
L 178.973615 161.160045 
L 179.230056 188.730524 
L 179.486497 148.294773 
L 179.742938 164.649578 
L 179.99938 150.884958 
L 180.255821 182.33199 
L 180.512262 162.206905 
L 181.025144 139.718454 
L 181.281586 186.503568 
L 181.538027 162.697026 
L 181.794468 182.135308 
L 182.050909 161.561341 
L 182.30735 161.071221 
L 182.563791 159.347074 
L 182.820233 201.456215 
L 183.076674 171.695261 
L 183.333115 166.280141 
L 183.589556 169.966356 
L 183.845997 143.160402 
L 184.102439 153.98747 
L 184.35888 130.214237 
L 184.615321 130.061966 
L 184.871762 148.475595 
L 185.128203 126.986419 
L 185.641086 164.555995 
L 185.897527 166.573579 
L 186.153968 134.195476 
L 186.410409 171.608023 
L 186.923292 134.809317 
L 187.179733 87.913173 
L 187.436174 102.139362 
L 187.692615 130.223754 
L 187.949056 117.701091 
L 188.205498 113.91812 
L 188.461939 92.273502 
L 188.71838 54.754683 
L 188.974821 87.718076 
L 189.231262 182.319301 
L 189.487704 102.45342 
L 189.744145 141.604388 
L 190.000586 105.481382 
L 190.257027 113.115528 
L 190.513468 153.763823 
L 191.026351 115.304416 
L 191.539233 183.416918 
L 191.795674 151.519419 
L 192.052115 143.455426 
L 192.308557 129.064277 
L 192.564998 152.195119 
L 192.821439 140.517875 
L 193.07788 139.645491 
L 193.334321 112.170182 
L 193.590763 121.51737 
L 193.847204 137.331297 
L 194.103645 133.775146 
L 194.360086 120.267483 
L 194.616527 156.691858 
L 194.872969 86.672802 
L 195.12941 97.517318 
L 195.385851 87.791039 
L 195.642292 116.319553 
L 195.898733 111.889433 
L 196.155174 137.204405 
L 196.411616 72.49737 
L 196.668057 79.209961 
L 196.924498 121.227105 
L 197.180939 114.984014 
L 197.693822 134.116169 
L 197.950263 111.370761 
L 198.206704 137.967344 
L 198.463145 129.096 
L 198.719586 131.794043 
L 198.976028 106.176117 
L 199.232469 107.709925 
L 199.48891 122.538852 
L 199.745351 124.223344 
L 200.001792 136.936345 
L 200.258234 120.762362 
L 200.514675 140.080097 
L 200.771116 129.414817 
L 201.027557 155.537139 
L 201.283998 145.966304 
L 201.540439 159.9054 
L 202.053322 137.118753 
L 202.566204 148.166295 
L 202.822645 169.525406 
L 203.079087 155.949539 
L 203.335528 160.116358 
L 203.591969 134.920347 
L 203.84841 135.77211 
L 204.104851 140.394155 
L 204.361293 166.414964 
L 204.617734 137.694526 
L 204.874175 198.05392 
L 205.130616 194.075853 
L 205.387057 150.961094 
L 205.643498 145.265225 
L 205.89994 107.882815 
L 206.156381 128.563053 
L 206.412822 161.353556 
L 206.669263 176.222136 
L 206.925704 164.938257 
L 207.182146 169.365205 
L 207.438587 166.2849 
L 207.695028 147.650796 
L 207.951469 163.77085 
L 208.20791 165.158732 
L 208.464352 155.472107 
L 208.720793 138.532013 
L 209.233675 153.295908 
L 209.490116 174.233103 
L 209.746558 164.843088 
L 210.002999 159.878435 
L 210.25944 181.413609 
L 210.515881 146.716553 
L 210.772322 151.076883 
L 211.028763 150.810409 
L 211.285205 137.540669 
L 211.798087 148.949854 
L 212.054528 151.463903 
L 212.310969 145.585627 
L 212.567411 180.913971 
L 212.823852 142.759106 
L 213.080293 140.187955 
L 213.336734 156.374627 
L 213.593175 164.862122 
L 213.849617 155.132671 
L 214.106058 134.438157 
L 214.362499 171.742846 
L 214.61894 166.714746 
L 214.875381 157.389764 
L 215.131822 153.586174 
L 215.388264 155.226254 
L 215.901146 141.823277 
L 216.157587 139.155371 
L 216.414028 168.267588 
L 216.67047 142.004098 
L 216.926911 146.80855 
L 217.183352 142.538631 
L 217.439793 141.509219 
L 217.696234 145.133574 
L 217.952676 170.531026 
L 218.209117 161.716784 
L 218.465558 170.082145 
L 218.721999 168.231107 
L 218.97844 178.339648 
L 219.234882 140.252987 
L 219.491323 152.934266 
L 219.747764 182.239994 
L 220.004205 172.391581 
L 220.260646 177.367337 
L 220.517087 173.42258 
L 220.773529 176.883561 
L 221.02997 144.733864 
L 221.286411 154.983573 
L 221.542852 172.240897 
L 221.799293 170.134488 
L 222.055735 137.080685 
L 222.312176 133.104204 
L 222.568617 150.280635 
L 222.825058 181.895799 
L 223.081499 176.940663 
L 223.337941 192.562665 
L 223.850823 172.133039 
L 224.363705 161.501068 
L 224.620146 155.759201 
L 224.876588 161.279007 
L 225.133029 162.373451 
L 225.38947 152.152293 
L 225.645911 148.970474 
L 225.902352 132.604567 
L 226.158794 155.33094 
L 226.415235 139.339364 
L 226.671676 168.767226 
L 226.928117 171.680986 
L 227.184558 135.913278 
L 227.441 127.427369 
L 227.697441 123.376339 
L 227.953882 128.034865 
L 228.210323 129.435437 
L 228.466764 155.870231 
L 228.723206 167.182661 
L 228.979647 162.394071 
L 229.236088 179.200928 
L 229.492529 173.570092 
L 229.74897 163.052324 
L 230.005411 113.496204 
L 230.518294 172.800808 
L 230.774735 187.513946 
L 231.031176 186.348125 
L 231.287617 168.684746 
L 231.544059 182.235235 
L 231.8005 170.347033 
L 232.056941 177.383199 
L 232.313382 157.975054 
L 232.569823 147.087712 
L 232.826265 160.757163 
L 233.082706 195.330499 
L 233.339147 163.177629 
L 233.595588 148.69607 
L 233.852029 168.440479 
L 234.10847 150.723171 
L 234.364912 190.605355 
L 234.621353 189.011273 
L 234.877794 155.643412 
L 235.134235 163.618579 
L 235.390676 160.598548 
L 235.647118 158.994949 
L 235.903559 149.485973 
L 236.416441 156.166841 
L 236.672882 164.3149 
L 236.929324 129.84625 
L 237.185765 142.61318 
L 237.442206 174.900872 
L 237.698647 178.361854 
L 237.955088 177.261065 
L 238.467971 131.400678 
L 238.724412 134.580911 
L 238.980853 134.814075 
L 239.237294 168.863981 
L 239.493735 153.530658 
L 239.750177 165.612371 
L 240.006618 155.687824 
L 240.263059 158.496897 
L 240.5195 149.525627 
L 240.775941 146.477044 
L 241.032383 116.448031 
L 241.288824 132.675943 
L 241.545265 137.185371 
L 241.801706 161.463 
L 242.058147 150.06809 
L 242.314589 126.865872 
L 242.57103 114.002186 
L 242.827471 135.128133 
L 243.083912 140.904895 
L 243.340353 138.413052 
L 243.596794 114.412999 
L 243.853236 116.571751 
L 244.109677 152.937438 
L 244.366118 115.285382 
L 244.622559 157.65941 
L 244.879 128.9929 
L 245.135442 130.717047 
L 245.391883 124.837185 
L 245.648324 121.598264 
L 246.161206 156.41904 
L 246.417648 153.644861 
L 246.674089 153.714652 
L 247.186971 145.287431 
L 247.443412 138.760419 
L 247.699854 151.746238 
L 247.956295 149.021231 
L 248.212736 132.190581 
L 248.469177 155.356318 
L 248.725618 155.705272 
L 248.982059 143.978856 
L 249.238501 182.298681 
L 249.494942 130.282441 
L 249.751383 174.593159 
L 250.007824 172.510543 
L 250.264265 145.032061 
L 250.520707 187.858141 
L 250.777148 156.479313 
L 251.033589 172.895977 
L 251.546471 150.821512 
L 251.802913 154.715513 
L 252.059354 145.904444 
L 252.315795 115.567717 
L 252.572236 162.316349 
L 252.828677 168.708538 
L 253.085118 162.842952 
L 253.34156 175.31803 
L 253.598001 164.681301 
L 253.854442 158.825231 
L 254.110883 146.345394 
L 254.367324 154.176222 
L 254.623766 166.386413 
L 254.880207 169.877532 
L 255.136648 179.857595 
L 255.393089 201.373735 
L 255.64953 194.726175 
L 255.905972 213.997911 
L 256.162413 173.944423 
L 256.675295 146.857721 
L 256.931736 177.062796 
L 257.188178 163.92312 
L 257.444619 175.570228 
L 257.70106 172.967354 
L 257.957501 137.090202 
L 258.213942 174.788256 
L 258.470383 175.649536 
L 258.726825 137.418535 
L 258.983266 127.474954 
L 259.496148 74.004213 
L 260.009031 123.890252 
L 260.265472 123.132072 
L 260.521913 103.81751 
L 260.778354 96.430804 
L 261.034795 126.018867 
L 261.291237 141.261779 
L 261.547678 122.353272 
L 261.804119 162.375037 
L 262.06056 134.999655 
L 262.317001 157.879885 
L 262.573442 161.789747 
L 262.829884 125.535091 
L 263.086325 123.539713 
L 263.342766 146.145539 
L 263.855648 132.766354 
L 264.11209 137.17744 
L 264.368531 171.013216 
L 264.624972 160.523999 
L 264.881413 179.535606 
L 265.137854 160.154425 
L 265.394296 175.803392 
L 265.650737 139.234678 
L 265.907178 139.697834 
L 266.163619 149.035506 
L 266.42006 152.694757 
L 266.676502 129.042071 
L 266.932943 149.249636 
L 267.189384 148.933992 
L 267.702266 179.765598 
L 267.958707 147.796722 
L 268.215149 159.374039 
L 268.47159 161.163218 
L 268.728031 159.51362 
L 268.984472 142.416497 
L 269.240913 137.378881 
L 269.497355 140.727246 
L 269.753796 155.183428 
L 270.010237 113.467653 
L 270.266678 168.010632 
L 270.779561 130.493399 
L 271.036002 143.173091 
L 271.292443 142.23409 
L 271.548884 169.032113 
L 271.805325 170.386686 
L 272.061766 162.078427 
L 272.318208 169.77126 
L 272.574649 128.624913 
L 272.83109 209.039603 
L 273.087531 160.812678 
L 273.343972 172.884874 
L 273.600414 150.821512 
L 273.856855 162.532066 
L 274.113296 152.567865 
L 274.369737 180.387369 
L 274.88262 141.217367 
L 275.139061 143.190539 
L 275.395502 170.048836 
L 275.651943 113.818193 
L 275.908384 124.275687 
L 276.421267 168.261244 
L 276.934149 126.001419 
L 277.19059 141.552045 
L 277.447031 137.773833 
L 277.703473 125.598537 
L 277.959914 134.46195 
L 278.216355 117.605922 
L 278.472796 136.224163 
L 278.729237 145.019371 
L 278.985679 142.394291 
L 279.24212 156.430143 
L 279.498561 110.814022 
L 279.498561 110.814022 
" clip-path="url(#pe0b520f515)" style="fill: none; stroke: #1f77b4; stroke-width: 1.5; stroke-linecap: square"/>
   </g>
   <g id="line2d_34">
    <path d="M 74.080997 -1 
L 74.089168 290.954792 
L 74.34561 292.204679 
L 74.858492 290.723214 
L 75.114933 290.482119 
L 75.371374 290.819969 
L 75.627816 289.980895 
L 75.884257 291.928688 
L 76.140698 290.747006 
L 76.65358 291.632078 
L 76.910022 292.639284 
L 77.422904 290.788246 
L 77.679345 291.502014 
L 77.935786 292.651973 
L 78.192227 291.456015 
L 78.448669 292.409292 
L 78.70511 292.263366 
L 78.961551 292.358535 
L 79.217992 290.482119 
L 79.474433 292.533012 
L 79.730875 295.481667 
L 79.987316 295.415049 
L 80.243757 295.602214 
L 80.500198 295.626007 
L 80.756639 293.698833 
L 81.013081 292.931136 
L 81.269522 293.611595 
L 81.782404 293.917722 
L 82.295287 293.836828 
L 82.808169 298.101989 
L 83.321051 298.017923 
L 83.577492 297.50401 
L 83.833934 297.832343 
L 84.090375 296.18909 
L 84.346816 293.378431 
L 84.603257 292.244332 
L 84.859698 292.625009 
L 85.11614 292.196748 
L 85.372581 291.995307 
L 85.629022 291.624147 
L 85.885463 295.020097 
L 86.141904 295.240572 
L 86.398346 295.162851 
L 86.654787 287.930001 
L 86.911228 288.658045 
L 87.42411 291.595597 
L 87.680551 291.233954 
L 87.936993 291.671732 
L 88.193434 290.997618 
L 88.962757 293.365741 
L 89.219199 293.446635 
L 89.47564 292.628181 
L 89.732081 291.384639 
L 89.988522 292.087304 
L 90.244963 292.169783 
L 90.501405 294.096957 
L 90.757846 295.062923 
L 91.014287 293.121474 
L 91.270728 292.883551 
L 91.527169 294.899549 
L 91.783611 293.067545 
L 92.040052 293.524356 
L 92.296493 291.408431 
L 92.552934 291.960411 
L 92.809375 292.180886 
L 93.065816 292.845484 
L 93.578699 292.696386 
L 93.83514 293.822553 
L 94.091581 294.106474 
L 94.348022 295.169195 
L 94.604464 291.973101 
L 94.860905 294.106474 
L 95.117346 292.095234 
L 95.373787 292.710661 
L 95.630228 293.616353 
L 95.88667 293.430774 
L 96.143111 292.688455 
L 96.399552 292.732867 
L 96.655993 290.796177 
L 96.912434 294.184195 
L 97.168875 292.13013 
L 97.425317 291.768487 
L 97.681758 294.215918 
L 97.938199 294.044614 
L 98.19464 290.899276 
L 98.451081 290.943689 
L 99.220405 293.218229 
L 99.476846 293.338777 
L 99.733287 294.823414 
L 99.989729 292.732867 
L 100.24617 293.908205 
L 100.502611 294.135025 
L 100.759052 293.911377 
L 101.271935 294.161989 
L 101.528376 294.057303 
L 101.784817 294.2524 
L 102.041258 294.057303 
L 102.55414 294.36343 
L 102.810582 295.407118 
L 103.067023 295.76876 
L 103.323464 294.772657 
L 103.579905 294.514115 
L 104.092788 294.361844 
L 104.349229 293.629042 
L 104.60567 296.328672 
L 104.862111 294.571216 
L 105.118552 293.590975 
L 105.374994 293.202368 
L 105.631435 291.73835 
L 105.887876 292.383914 
L 106.400758 289.493946 
L 106.657199 289.639872 
L 106.913641 290.076064 
L 107.170082 293.503736 
L 107.426523 291.935033 
L 107.682964 291.739936 
L 107.939405 292.058753 
L 108.195847 291.516289 
L 108.452288 290.542392 
L 108.708729 294.469703 
L 108.96517 296.116127 
L 109.221611 295.592698 
L 109.478053 294.306329 
L 109.734494 292.087304 
L 109.990935 296.488873 
L 110.503817 291.601941 
L 111.0167 293.74959 
L 111.273141 295.900411 
L 111.529582 292.750315 
L 111.786023 294.073165 
L 112.298906 292.383914 
L 112.555347 293.392706 
L 113.068229 291.156233 
L 113.581112 294.112819 
L 113.837553 293.828897 
L 114.093994 292.322054 
L 114.350435 291.860484 
L 114.606876 291.68918 
L 114.863318 292.315709 
L 115.3762 292.625009 
L 115.632641 292.491772 
L 116.145523 294.299984 
L 116.401965 295.262778 
L 116.658406 293.912963 
L 116.914847 293.264228 
L 117.427729 295.1343 
L 117.684171 294.723487 
L 117.940612 293.48153 
L 118.197053 297.080507 
L 118.453494 293.822553 
L 118.709935 292.750315 
L 118.966377 293.624284 
L 119.222818 293.651249 
L 119.479259 294.412601 
L 119.7357 297.925926 
L 119.992141 292.610733 
L 120.248583 293.825725 
L 120.505024 293.230918 
L 120.761465 292.326812 
L 121.017906 297.208986 
L 121.274347 292.937481 
L 121.530788 293.150025 
L 122.300112 292.228471 
L 122.556553 292.969204 
L 122.812994 292.896241 
L 123.069436 294.138197 
L 123.582318 292.563149 
L 123.838759 292.823278 
L 124.0952 291.824002 
L 124.351642 291.497255 
L 124.608083 291.984204 
L 124.864524 292.019099 
L 125.120965 291.541668 
L 125.377406 291.383052 
L 125.633847 297.142367 
L 125.890289 297.845032 
L 126.14673 299.14409 
L 126.403171 298.985475 
L 126.659612 294.049372 
L 127.172495 290.802521 
L 127.428936 290.910379 
L 127.685377 290.656595 
L 127.941818 290.885001 
L 128.198259 288.864244 
L 128.454701 292.610733 
L 128.967583 294.929686 
L 129.224024 294.625145 
L 129.480465 295.524493 
L 129.736907 295.36905 
L 130.249789 295.784622 
L 130.762671 293.863793 
L 131.019112 294.255572 
L 131.275554 293.676627 
L 131.531995 296.317569 
L 131.788436 297.783172 
L 132.044877 295.45153 
L 132.301318 295.329396 
L 132.55776 293.849517 
L 132.814201 295.521321 
L 133.327083 293.66711 
L 133.583524 293.598906 
L 133.839966 293.776554 
L 134.609289 293.801933 
L 134.86573 293.570355 
L 135.378613 294.054131 
L 135.635054 292.992996 
L 135.891495 293.565596 
L 136.147936 292.190403 
L 136.404377 291.747867 
L 136.91726 292.755073 
L 137.173701 293.836828 
L 137.686583 292.664663 
L 137.943025 293.559252 
L 138.455907 297.093196 
L 138.712348 296.1193 
L 139.225231 297.851377 
L 139.481672 297.299396 
L 139.738113 292.004824 
L 139.994554 294.330121 
L 140.507436 292.296675 
L 140.763878 292.55046 
L 141.020319 292.274469 
L 141.27676 293.857448 
L 141.533201 292.090476 
L 141.789642 292.915274 
L 142.046084 292.204679 
L 142.302525 293.159542 
L 142.558966 291.678077 
L 142.815407 292.066684 
L 143.071848 293.338777 
L 143.584731 293.302295 
L 143.841172 294.985202 
L 144.354054 292.534598 
L 144.610495 297.080507 
L 144.866937 296.019372 
L 145.123378 296.319155 
L 145.63626 292.745556 
L 145.892701 292.74397 
L 146.149143 291.746281 
L 146.405584 292.356949 
L 146.662025 291.148302 
L 146.918466 293.841587 
L 147.174907 293.851104 
L 147.68779 294.054131 
L 148.457113 294.163575 
L 148.713555 293.903447 
L 149.482878 293.833656 
L 149.739319 293.846345 
L 149.99576 296.135161 
L 150.252202 295.606973 
L 150.508643 295.914686 
L 150.765084 295.548285 
L 151.021525 293.51484 
L 151.277966 292.99141 
L 151.534408 293.105613 
L 151.790849 294.415773 
L 152.04729 294.73459 
L 152.303731 293.838414 
L 152.560172 293.936756 
L 152.816614 294.940789 
L 153.073055 297.437391 
L 153.329496 294.872585 
L 153.585937 296.561836 
L 153.842378 296.087577 
L 154.098819 296.068543 
L 154.355261 296.961546 
L 154.611702 294.793277 
L 154.868143 295.741796 
L 155.124584 294.790105 
L 155.637467 296.438116 
L 155.893908 292.539357 
L 156.150349 293.035822 
L 156.40679 292.644043 
L 156.663231 291.982618 
L 156.919673 292.518737 
L 157.176114 293.519598 
L 157.432555 292.387086 
L 157.688996 292.228471 
L 157.945437 291.460774 
L 158.201879 291.46236 
L 158.714761 292.479083 
L 158.971202 292.832795 
L 159.227643 292.604389 
L 159.740526 291.801796 
L 159.996967 290.85645 
L 160.253408 291.486152 
L 160.509849 291.768487 
L 161.022732 291.751039 
L 161.279173 290.161716 
L 161.535614 293.798761 
L 161.792055 292.038133 
L 162.048496 291.751039 
L 162.304938 290.688318 
L 162.561379 291.302159 
L 163.074261 290.64232 
L 163.330702 293.990685 
L 163.587143 294.106474 
L 163.843585 293.627456 
L 164.356467 293.822553 
L 164.612908 293.957376 
L 164.869349 293.905033 
L 165.125791 294.206401 
L 165.382232 293.74959 
L 165.638673 293.541804 
L 166.151555 294.163575 
L 166.407997 295.351603 
L 166.664438 294.361844 
L 166.920879 294.250814 
L 167.17732 293.903447 
L 167.433761 292.063511 
L 167.690202 291.909655 
L 167.946644 290.455154 
L 168.459526 289.909518 
L 168.715967 291.424292 
L 168.972408 291.302159 
L 169.22885 289.946 
L 169.485291 290.352054 
L 169.741732 292.756659 
L 169.998173 290.861209 
L 170.254614 292.650387 
L 170.511056 293.167472 
L 171.023938 293.146852 
L 171.280379 294.818656 
L 171.53682 293.478358 
L 172.049703 295.45153 
L 172.306144 295.51339 
L 172.562585 298.358945 
L 173.075467 297.024992 
L 173.331909 297.551594 
L 173.58835 297.377118 
L 173.844791 296.530113 
L 174.101232 295.162851 
L 174.357673 292.245919 
L 174.614115 292.475911 
L 174.870556 292.093648 
L 175.126997 292.372811 
L 175.383438 292.253849 
L 175.639879 292.601216 
L 175.896321 292.629767 
L 176.152762 292.824864 
L 176.409203 293.346708 
L 176.665644 293.124646 
L 176.922085 293.324501 
L 177.434968 294.282537 
L 177.691409 293.013616 
L 177.94785 298.769758 
L 178.204291 292.355363 
L 178.460732 293.746418 
L 178.717174 292.969204 
L 179.230056 292.494944 
L 179.486497 293.105613 
L 179.99938 291.460774 
L 180.255821 292.985065 
L 180.512262 292.407706 
L 180.768703 292.739212 
L 181.025144 290.948447 
L 181.794468 294.575975 
L 182.050909 295.094646 
L 182.30735 294.290467 
L 182.563791 289.589116 
L 183.076674 291.760556 
L 183.589556 294.012891 
L 183.845997 293.917722 
L 184.102439 291.928688 
L 184.615321 292.523495 
L 184.871762 293.28802 
L 185.128203 295.118438 
L 185.384645 294.157231 
L 185.641086 297.456425 
L 185.897527 292.298262 
L 186.410409 291.054719 
L 186.66685 292.885138 
L 186.923292 290.399639 
L 187.179733 291.992134 
L 187.436174 291.422706 
L 187.692615 292.57901 
L 187.949056 292.360122 
L 188.205498 290.3124 
L 188.461939 291.712972 
L 188.71838 291.306917 
L 188.974821 292.44736 
L 189.231262 292.547287 
L 189.487704 293.148439 
L 189.744145 292.147577 
L 190.000586 293.527529 
L 190.257027 293.993857 
L 190.513468 295.711659 
L 190.76991 292.900999 
L 191.026351 293.957376 
L 191.282792 292.10951 
L 191.539233 292.832795 
L 191.795674 298.431908 
L 192.052115 292.856587 
L 192.308557 294.579147 
L 192.564998 294.674316 
L 192.821439 297.294638 
L 193.07788 294.02558 
L 193.334321 296.56025 
L 193.590763 296.71252 
L 193.847204 292.374397 
L 194.360086 294.163575 
L 194.616527 292.395017 
L 194.872969 292.786796 
L 195.12941 292.907344 
L 195.385851 292.352191 
L 195.642292 292.712247 
L 196.155174 295.559388 
L 196.411616 292.693213 
L 196.924498 294.260331 
L 197.180939 291.417948 
L 197.43738 291.925516 
L 197.693822 293.706764 
L 197.950263 292.770935 
L 198.206704 292.850242 
L 198.463145 292.739212 
L 198.719586 289.428914 
L 198.976028 291.224437 
L 199.232469 290.07765 
L 199.48891 290.750178 
L 199.745351 290.39488 
L 200.001792 290.329848 
L 200.258234 290.090339 
L 200.514675 289.349607 
L 200.771116 290.929413 
L 201.283998 288.286885 
L 201.540439 290.7248 
L 201.796881 290.27116 
L 202.053322 293.313398 
L 202.309763 291.127682 
L 202.566204 290.459912 
L 202.822645 290.447223 
L 203.079087 291.373536 
L 203.335528 289.90476 
L 203.591969 289.132304 
L 203.84841 289.601805 
L 204.104851 291.16575 
L 204.361293 290.924655 
L 204.617734 289.601805 
L 205.130616 291.492497 
L 205.387057 292.450532 
L 205.643498 292.515564 
L 205.89994 292.707489 
L 206.156381 292.388672 
L 206.412822 298.41446 
L 206.669263 299.115539 
L 206.925704 297.781586 
L 207.182146 299.117125 
L 207.438587 298.985475 
L 207.695028 293.462497 
L 208.464352 291.839864 
L 208.720793 292.000065 
L 208.977234 292.900999 
L 209.233675 292.99141 
L 209.490116 292.9581 
L 210.002999 293.210299 
L 210.25944 293.167472 
L 210.515881 292.985065 
L 210.772322 294.341224 
L 211.028763 294.196885 
L 211.285205 294.261917 
L 211.541646 293.394292 
L 211.798087 293.338777 
L 212.054528 294.449083 
L 212.310969 293.127819 
L 212.823852 293.491047 
L 213.080293 293.45298 
L 213.336734 293.016788 
L 213.593175 293.887585 
L 213.849617 293.595733 
L 214.106058 293.538632 
L 214.362499 293.197609 
L 214.875381 292.107923 
L 215.388264 291.436982 
L 215.901146 290.471016 
L 216.157587 290.45674 
L 216.414028 290.618528 
L 216.67047 292.120613 
L 216.926911 292.88831 
L 217.183352 292.585355 
L 217.439793 296.98851 
L 217.696234 294.710797 
L 217.952676 293.62587 
L 218.209117 298.384323 
L 218.465558 299.507318 
L 218.721999 294.710797 
L 218.97844 293.819381 
L 219.234882 293.679799 
L 219.491323 299.264637 
L 219.747764 299.404219 
L 220.004205 299.396288 
L 220.260646 297.792689 
L 220.517087 299.375668 
L 220.773529 295.626007 
L 221.02997 297.35967 
L 221.286411 296.699831 
L 221.542852 294.452255 
L 221.799293 294.227021 
L 222.055735 293.116716 
L 222.312176 293.595733 
L 222.568617 293.44029 
L 222.825058 299.272568 
L 223.081499 299.439114 
L 224.107264 299.313808 
L 224.363705 293.000927 
L 224.620146 292.783624 
L 224.876588 293.340363 
L 225.133029 292.172956 
L 225.38947 292.513978 
L 225.645911 293.598906 
L 225.902352 293.965306 
L 226.158794 292.498117 
L 226.415235 293.587802 
L 226.671676 293.140508 
L 226.928117 292.052408 
L 227.184558 291.931861 
L 227.697441 293.104026 
L 227.953882 298.357359 
L 228.210323 296.541216 
L 228.466764 297.134436 
L 228.723206 298.106747 
L 228.979647 297.118575 
L 229.236088 295.078785 
L 229.492529 299.829307 
L 230.005411 299.876892 
L 230.261853 299.70876 
L 230.518294 297.916409 
L 231.031176 293.46091 
L 231.287617 298.090886 
L 231.544059 295.510218 
L 232.056941 299.39946 
L 232.313382 299.58504 
L 232.569823 299.580281 
L 233.082706 292.9581 
L 233.339147 293.835242 
L 233.595588 295.338913 
L 234.10847 296.690314 
L 234.364912 296.285846 
L 234.621353 293.798761 
L 234.877794 294.931272 
L 235.134235 295.223124 
L 235.390676 292.767762 
L 235.647118 292.86769 
L 235.903559 294.56963 
L 236.16 294.645765 
L 236.416441 299.494629 
L 236.672882 296.821965 
L 236.929324 299.72938 
L 237.698647 299.897512 
L 237.955088 296.45715 
L 238.21153 295.737037 
L 238.467971 297.223261 
L 238.724412 296.452391 
L 238.980853 294.0462 
L 239.237294 294.853551 
L 239.493735 294.740934 
L 239.750177 291.118165 
L 240.263059 292.539357 
L 240.5195 292.86769 
L 240.775941 294.691764 
L 241.032383 292.369638 
L 241.288824 294.821828 
L 241.545265 295.094646 
L 242.058147 293.118302 
L 242.314589 292.866104 
L 242.57103 292.778865 
L 242.827471 293.916136 
L 243.083912 293.957376 
L 243.340353 295.792553 
L 243.596794 295.167609 
L 243.853236 293.822553 
L 244.109677 294.636248 
L 244.366118 299.410563 
L 244.622559 298.707898 
L 244.879 298.527077 
L 245.135442 298.795137 
L 245.648324 299.010853 
L 245.904765 292.80583 
L 246.161206 295.57525 
L 246.417648 296.442875 
L 246.674089 298.906167 
L 246.93053 298.005233 
L 247.186971 295.29926 
L 247.443412 294.209574 
L 247.699854 294.653696 
L 247.956295 291.971514 
L 248.212736 292.161853 
L 248.469177 290.701007 
L 248.725618 298.37322 
L 248.982059 292.08889 
L 249.238501 291.649526 
L 249.494942 293.803519 
L 249.751383 297.036095 
L 250.007824 297.085266 
L 250.520707 295.242158 
L 251.033589 296.598317 
L 251.29003 295.773519 
L 251.546471 298.084541 
L 251.802913 298.428736 
L 252.059354 298.228881 
L 252.572236 292.639284 
L 252.828677 293.200782 
L 253.598001 296.262053 
L 253.854442 293.046925 
L 254.110883 292.791555 
L 254.367324 293.075476 
L 254.623766 292.935894 
L 254.880207 292.469566 
L 255.136648 292.479083 
L 255.393089 291.925516 
L 255.64953 292.258608 
L 255.905972 290.401225 
L 256.162413 292.090476 
L 256.675295 289.926966 
L 256.931736 290.607425 
L 257.188178 291.86207 
L 257.70106 290.437706 
L 257.957501 291.855725 
L 258.213942 294.504598 
L 258.726825 296.20971 
L 258.983266 293.714695 
L 259.239707 295.521321 
L 259.496148 295.372223 
L 259.752589 294.579147 
L 260.009031 294.368189 
L 260.265472 294.791691 
L 260.521913 294.096957 
L 261.034795 291.159405 
L 261.291237 293.037408 
L 261.547678 292.839139 
L 261.804119 292.141233 
L 262.06056 292.420395 
L 262.317001 293.451393 
L 262.829884 291.398914 
L 263.086325 291.803382 
L 263.342766 290.463085 
L 263.599207 290.932586 
L 263.855648 290.248954 
L 264.368531 291.979445 
L 264.624972 292.079373 
L 264.881413 291.724075 
L 265.137854 291.757384 
L 265.394296 294.786933 
L 265.650737 293.557666 
L 266.163619 298.677761 
L 266.42006 291.330709 
L 266.676502 292.193576 
L 266.932943 292.57108 
L 267.189384 292.748729 
L 267.445825 295.28657 
L 267.702266 294.812311 
L 267.958707 296.53963 
L 268.215149 296.64273 
L 268.47159 297.080507 
L 268.728031 296.401635 
L 268.984472 295.059751 
L 269.240913 296.16054 
L 269.497355 295.132714 
L 269.753796 295.41029 
L 270.010237 296.572939 
L 270.266678 294.744107 
L 270.523119 295.652971 
L 270.779561 292.296675 
L 271.292443 290.651837 
L 271.548884 292.526667 
L 271.805325 293.004099 
L 272.318208 295.654557 
L 272.574649 295.510218 
L 272.83109 296.425427 
L 273.087531 295.990821 
L 273.343972 294.011305 
L 273.600414 295.096232 
L 273.856855 297.754621 
L 274.369737 293.879654 
L 274.626178 293.759107 
L 275.139061 292.831208 
L 275.395502 295.139058 
L 275.651943 294.699694 
L 275.908384 297.661039 
L 276.164826 297.538905 
L 276.421267 292.533012 
L 276.677708 293.222988 
L 276.934149 291.919172 
L 277.19059 292.596458 
L 277.447031 291.889035 
L 277.703473 292.11744 
L 277.959914 290.986515 
L 278.216355 291.998479 
L 278.472796 291.638423 
L 278.729237 290.37426 
L 279.24212 291.751039 
L 279.498561 288.881692 
L 279.755002 289.771523 
L 280.011443 289.782626 
L 280.267885 290.110959 
L 280.524326 291.384639 
L 280.780767 290.248954 
L 281.037208 291.4005 
L 281.293649 290.991273 
L 281.806532 295.489598 
L 282.062973 296.29219 
L 282.575855 293.905033 
L 283.345179 292.964445 
L 283.60162 292.260194 
L 283.858061 292.093648 
L 284.114502 290.420259 
L 284.370944 290.290194 
L 284.883826 290.367916 
L 285.140267 291.719316 
L 285.396708 290.705766 
L 285.65315 290.643906 
L 285.909591 292.307779 
L 286.166032 292.242746 
L 286.678914 292.842311 
L 286.935355 298.423977 
L 287.191797 298.628591 
L 287.448238 298.628591 
L 287.704679 298.85541 
L 287.96112 292.763004 
L 288.217561 292.441015 
L 288.474003 292.396603 
L 288.730444 293.295951 
L 289.243326 296.409565 
L 289.499767 293.378431 
L 289.756209 292.036547 
L 290.01265 298.057576 
L 290.269091 297.061473 
L 290.525532 294.144542 
L 290.781973 288.464534 
L 291.038414 290.168061 
L 291.294856 290.702594 
L 291.551297 292.480669 
L 291.807738 289.489188 
L 292.064179 288.697699 
L 292.32062 289.373399 
L 292.577062 290.431362 
L 292.833503 290.045927 
L 293.089944 289.999929 
L 293.346385 290.195025 
L 293.859268 294.541079 
L 294.37215 291.61463 
L 294.628591 296.120886 
L 294.885032 293.492633 
L 295.141474 294.710797 
L 295.397915 294.369775 
L 295.654356 289.879381 
L 295.910797 292.028616 
L 296.167238 289.006998 
L 296.423679 290.986515 
L 296.680121 291.187956 
L 296.936562 290.930999 
L 297.193003 293.200782 
L 297.449444 292.307779 
L 297.705885 289.987239 
L 298.475209 293.169059 
L 298.73165 293.113543 
L 298.988091 292.656732 
L 299.500974 294.052545 
L 300.013856 291.278366 
L 300.526738 291.66856 
L 300.78318 291.541668 
L 301.039621 298.133712 
L 301.296062 298.53818 
L 301.808944 298.755483 
L 302.065386 298.450942 
L 302.321827 295.944823 
L 302.578268 298.707898 
L 302.834709 296.812448 
L 303.09115 296.674453 
L 303.347592 292.816933 
L 303.604033 297.603937 
L 303.860474 297.429461 
L 304.116915 292.429912 
L 304.373356 296.376256 
L 304.629798 293.215057 
L 304.886239 292.851828 
L 305.14268 293.43236 
L 305.399121 293.013616 
L 305.655562 293.454566 
L 305.912003 291.513117 
L 306.168445 293.484703 
L 306.424886 293.776554 
L 306.937768 293.627456 
L 307.194209 294.122335 
L 307.450651 292.642456 
L 307.963533 293.974823 
L 308.219974 293.44029 
L 308.476415 293.610009 
L 308.732857 292.257022 
L 308.989298 292.448946 
L 309.245739 293.272158 
L 309.50218 293.016788 
L 309.758621 293.660765 
L 310.015062 293.364155 
L 310.271504 291.809727 
L 310.527945 292.374397 
L 310.784386 291.279953 
L 311.040827 292.699558 
L 311.297268 292.648801 
L 311.55371 293.354638 
L 311.810151 293.22616 
L 312.066592 292.34426 
L 312.323033 290.875484 
L 312.579474 292.349018 
L 313.092357 296.522182 
L 313.348798 295.982891 
L 313.605239 293.809864 
L 313.86168 295.775105 
L 314.118121 294.111232 
L 314.374563 294.106474 
L 314.631004 297.039267 
L 315.143886 289.746144 
L 315.400327 291.659043 
L 315.656769 292.380741 
L 315.91321 292.293503 
L 316.426092 289.969792 
L 316.682533 292.460049 
L 316.938975 292.456877 
L 317.195416 293.722625 
L 317.708298 293.803519 
L 317.964739 293.673455 
L 318.221181 295.797311 
L 318.477622 299.174227 
L 318.734063 294.361844 
L 318.990504 293.713108 
L 319.503386 293.49422 
L 319.759828 292.902585 
L 320.016269 292.680524 
L 320.27271 292.755073 
L 320.529151 293.970065 
L 320.785592 292.900999 
L 321.298475 292.874034 
L 321.554916 292.672593 
L 322.32424 292.666249 
L 322.837122 292.932722 
L 323.350004 292.832795 
L 323.606445 294.637835 
L 323.862887 295.584767 
L 324.119328 297.84186 
L 324.375769 295.091474 
L 324.63221 294.192126 
L 325.145093 293.318157 
L 325.401534 299.196433 
L 325.914416 299.618349 
L 326.170857 299.136159 
L 326.427299 299.169468 
L 326.68374 299.429597 
L 326.940181 294.541079 
L 327.196622 299.856272 
L 327.453063 299.983164 
L 327.709505 299.121884 
L 327.965946 299.783309 
L 328.478828 299.570765 
L 328.99171 292.112682 
L 329.248152 290.756523 
L 329.761034 292.453704 
L 330.017475 294.666385 
L 330.273916 294.547424 
L 330.530358 293.957376 
L 331.299681 297.35967 
L 331.556122 297.784758 
L 331.812564 296.749002 
L 332.069005 294.636248 
L 332.325446 297.124919 
L 332.581887 294.810725 
L 332.838328 299.618349 
L 333.094769 299.648486 
L 333.351211 299.508905 
L 333.607652 299.581868 
L 333.864093 295.633937 
L 334.120534 294.136611 
L 334.376975 296.254123 
L 334.633417 295.689453 
L 334.889858 292.61232 
L 335.146299 291.784349 
L 335.40274 292.204679 
L 335.659181 290.605838 
L 335.915623 291.341812 
L 336.172064 296.39529 
L 336.428505 295.166023 
L 336.684946 295.139058 
L 336.941387 292.226885 
L 337.197829 292.10951 
L 337.45427 291.849381 
L 337.710711 292.203093 
L 337.967152 291.86207 
L 338.223593 289.941241 
L 338.480034 290.68356 
L 338.736476 288.780178 
L 338.992917 288.794454 
L 339.249358 290.934172 
L 339.505799 291.771659 
L 339.76224 290.8279 
L 340.018682 290.962722 
L 340.531564 292.337915 
L 340.788005 292.257022 
L 341.044446 292.588527 
L 341.300888 292.569493 
L 341.557329 292.671007 
L 341.81377 291.505186 
L 342.326652 292.325226 
L 342.583093 292.269711 
L 342.839535 291.25616 
L 343.352417 291.919172 
L 343.608858 290.340951 
L 343.865299 289.695388 
L 344.121741 291.670146 
L 344.378182 290.144268 
L 344.634623 289.790557 
L 344.891064 291.690766 
L 345.147505 292.106337 
L 345.403947 291.597183 
L 345.660388 291.535323 
L 345.916829 288.87852 
L 346.17327 291.516289 
L 346.429711 291.736764 
L 346.686153 291.240299 
L 346.942594 291.321193 
L 347.199035 290.596321 
L 347.455476 289.130718 
L 347.711917 289.814349 
L 348.2248 291.892207 
L 348.481241 291.866829 
L 348.737682 292.172956 
L 348.994123 291.942964 
L 349.250564 294.023994 
L 349.507006 291.42112 
L 349.763447 293.500564 
L 350.019888 294.261917 
L 350.276329 294.003374 
L 350.53277 294.182609 
L 350.789212 298.32405 
L 351.045653 296.790242 
L 351.302094 293.974823 
L 351.558535 293.782899 
L 351.814976 293.885999 
L 352.071417 294.155645 
L 352.5843 299.202777 
L 352.840741 299.69607 
L 353.353623 299.800756 
L 353.610065 297.795861 
L 353.866506 297.564283 
L 354.122947 292.460049 
L 354.635829 291.378294 
L 354.892271 291.443326 
L 355.148712 291.300573 
L 355.661594 289.709663 
L 355.918035 291.21492 
L 356.174477 291.08327 
L 356.430918 291.213334 
L 356.687359 292.360122 
L 356.9438 292.368052 
L 357.713124 293.118302 
L 357.969565 289.281402 
L 358.226006 292.494944 
L 358.482447 293.132577 
L 358.738888 294.315846 
L 358.99533 294.629904 
L 359.251771 292.577424 
L 359.508212 293.078648 
L 359.764653 292.586941 
L 360.021094 292.954928 
L 361.046859 292.460049 
L 361.3033 292.832795 
L 361.559741 295.234227 
L 361.816183 292.312537 
L 362.072624 291.178439 
L 362.329065 293.130991 
L 362.585506 296.046337 
L 362.841947 291.789107 
L 363.098389 294.0462 
L 363.35483 291.96517 
L 363.611271 292.799485 
L 363.867712 292.065097 
L 364.380595 293.632215 
L 364.637036 291.346571 
L 364.893477 290.474188 
L 365.149918 291.327537 
L 365.406359 291.376708 
L 365.662801 290.686732 
L 365.919242 293.670282 
L 366.175683 292.293503 
L 366.432124 293.178576 
L 366.688565 292.92955 
L 367.201448 291.311676 
L 367.71433 293.421257 
L 367.970771 292.712247 
L 368.227212 292.491772 
L 368.483654 292.526667 
L 368.740095 292.152336 
L 368.996536 292.306192 
L 369.252977 291.990548 
L 369.509418 294.063648 
L 369.76586 290.777143 
L 370.022301 290.214059 
L 370.278742 291.700283 
L 370.535183 291.998479 
L 370.791624 291.563874 
L 371.048065 290.047513 
L 371.304507 291.720903 
L 371.560948 291.630492 
L 371.817389 292.374397 
L 372.07383 291.538495 
L 372.586713 292.678938 
L 372.843154 292.239574 
L 373.099595 292.533012 
L 373.356036 290.964309 
L 373.612477 290.845347 
L 374.381801 293.971651 
L 374.638242 291.966756 
L 374.894683 291.5036 
L 375.151125 292.644043 
L 375.407566 292.291917 
L 375.664007 293.406981 
L 375.920448 292.455291 
L 376.43333 291.979445 
L 376.689772 292.68211 
L 376.946213 292.491772 
L 377.202654 293.510081 
L 377.459095 293.305468 
L 377.715536 292.383914 
L 377.971978 288.634253 
L 378.228419 288.634253 
L 378.741301 291.554357 
L 378.997742 289.49236 
L 379.254184 290.463085 
L 379.510625 290.978584 
L 379.767066 290.182336 
L 380.023507 290.832658 
L 380.279948 290.212473 
L 380.536389 290.629631 
L 380.792831 289.844486 
L 381.049272 294.522046 
L 381.305713 295.700556 
L 381.818595 296.030475 
L 382.075037 291.107062 
L 382.331478 291.532151 
L 382.587919 292.653559 
L 382.84436 291.218093 
L 383.100801 291.5036 
L 383.357243 292.496531 
L 383.613684 292.161853 
L 383.870125 292.390258 
L 384.126566 292.237988 
L 384.383007 295.262778 
L 384.639449 293.982754 
L 384.89589 293.619526 
L 385.152331 294.63149 
L 385.408772 293.034236 
L 385.665213 294.997891 
L 385.921654 295.262778 
L 386.178096 293.748004 
L 386.434537 294.214332 
L 386.690978 296.035234 
L 386.947419 297.039267 
L 387.20386 292.797899 
L 387.460302 293.356224 
L 387.716743 291.708213 
L 387.973184 292.796313 
L 388.486066 293.9431 
L 388.742508 294.041442 
L 388.998949 293.405395 
L 389.25539 293.60525 
L 389.511831 293.324501 
L 389.768272 296.10661 
L 390.281155 294.336466 
L 390.537596 292.000065 
L 390.794037 291.981031 
L 391.050478 291.766901 
L 391.306919 291.108648 
L 391.819802 290.762867 
L 392.076243 290.910379 
L 392.332684 292.276056 
L 392.589125 290.122062 
L 393.102008 293.510081 
L 393.358449 294.050959 
L 393.61489 294.141369 
L 393.871331 293.660765 
L 394.127773 293.89393 
L 394.384214 292.448946 
L 394.640655 293.760693 
L 394.897096 294.133438 
L 395.409978 293.202368 
L 395.66642 294.361844 
L 395.922861 292.880379 
L 396.179302 293.663938 
L 396.435743 292.15075 
L 396.692184 293.954203 
L 396.948626 294.867826 
L 397.717949 290.840589 
L 398.230832 292.815347 
L 398.487273 286.849833 
L 398.487273 286.849833 
" clip-path="url(#pe0b520f515)" style="fill: none; stroke: #ff7f0e; stroke-width: 1.5; stroke-linecap: square"/>
   </g>
   <g id="patch_3">
    <path d="M 57.6 307.584 
L 57.6 41.472 
" style="fill: none; stroke: #000000; stroke-width: 0.8; stroke-linejoin: miter; stroke-linecap: square"/>
   </g>
   <g id="patch_4">
    <path d="M 414.72 307.584 
L 414.72 41.472 
" style="fill: none; stroke: #000000; stroke-width: 0.8; stroke-linejoin: miter; stroke-linecap: square"/>
   </g>
   <g id="patch_5">
    <path d="M 57.6 307.584 
L 414.72 307.584 
" style="fill: none; stroke: #000000; stroke-width: 0.8; stroke-linejoin: miter; stroke-linecap: square"/>
   </g>
   <g id="patch_6">
    <path d="M 57.6 41.472 
L 414.72 41.472 
" style="fill: none; stroke: #000000; stroke-width: 0.8; stroke-linejoin: miter; stroke-linecap: square"/>
   </g>
   <g id="text_19">
    <!-- Time for each step -->
    <g transform="translate(180.06 35.472)scale(0.12 -0.12)">
     <defs>
      <path id="DejaVuSans-66" d="M 2375 4863 
L 2375 4384 
L 1825 4384 
Q 1516 4384 1395 4259 
Q 1275 4134 1275 3809 
L 1275 3500 
L 2222 3500 
L 2222 3053 
L 1275 3053 
L 1275 0 
L 697 0 
L 697 3053 
L 147 3053 
L 147 3500 
L 697 3500 
L 697 3744 
Q 697 4328 969 4595 
Q 1241 4863 1831 4863 
L 2375 4863 
z
" transform="scale(0.015625)"/>
      <path id="DejaVuSans-63" d="M 3122 3366 
L 3122 2828 
Q 2878 2963 2633 3030 
Q 2388 3097 2138 3097 
Q 1578 3097 1268 2742 
Q 959 2388 959 1747 
Q 959 1106 1268 751 
Q 1578 397 2138 397 
Q 2388 397 2633 464 
Q 2878 531 3122 666 
L 3122 134 
Q 2881 22 2623 -34 
Q 2366 -91 2075 -91 
Q 1284 -91 818 406 
Q 353 903 353 1747 
Q 353 2603 823 3093 
Q 1294 3584 2113 3584 
Q 2378 3584 2631 3529 
Q 2884 3475 3122 3366 
z
" transform="scale(0.015625)"/>
      <path id="DejaVuSans-68" d="M 3513 2113 
L 3513 0 
L 2938 0 
L 2938 2094 
Q 2938 2591 2744 2837 
Q 2550 3084 2163 3084 
Q 1697 3084 1428 2787 
Q 1159 2491 1159 1978 
L 1159 0 
L 581 0 
L 581 4863 
L 1159 4863 
L 1159 2956 
Q 1366 3272 1645 3428 
Q 1925 3584 2291 3584 
Q 2894 3584 3203 3211 
Q 3513 2838 3513 2113 
z
" transform="scale(0.015625)"/>
      <path id="DejaVuSans-70" d="M 1159 525 
L 1159 -1331 
L 581 -1331 
L 581 3500 
L 1159 3500 
L 1159 2969 
Q 1341 3281 1617 3432 
Q 1894 3584 2278 3584 
Q 2916 3584 3314 3078 
Q 3713 2572 3713 1747 
Q 3713 922 3314 415 
Q 2916 -91 2278 -91 
Q 1894 -91 1617 61 
Q 1341 213 1159 525 
z
M 3116 1747 
Q 3116 2381 2855 2742 
Q 2594 3103 2138 3103 
Q 1681 3103 1420 2742 
Q 1159 2381 1159 1747 
Q 1159 1113 1420 752 
Q 1681 391 2138 391 
Q 2594 391 2855 752 
Q 3116 1113 3116 1747 
z
" transform="scale(0.015625)"/>
     </defs>
     <use xlink:href="#DejaVuSans-54"/>
     <use xlink:href="#DejaVuSans-69" x="57.958984"/>
     <use xlink:href="#DejaVuSans-6d" x="85.742188"/>
     <use xlink:href="#DejaVuSans-65" x="183.154297"/>
     <use xlink:href="#DejaVuSans-20" x="244.677734"/>
     <use xlink:href="#DejaVuSans-66" x="276.464844"/>
     <use xlink:href="#DejaVuSans-6f" x="311.669922"/>
     <use xlink:href="#DejaVuSans-72" x="372.851562"/>
     <use xlink:href="#DejaVuSans-20" x="413.964844"/>
     <use xlink:href="#DejaVuSans-65" x="445.751953"/>
     <use xlink:href="#DejaVuSans-61" x="507.275391"/>
     <use xlink:href="#DejaVuSans-63" x="568.554688"/>
     <use xlink:href="#DejaVuSans-68" x="623.535156"/>
     <use xlink:href="#DejaVuSans-20" x="686.914062"/>
     <use xlink:href="#DejaVuSans-73" x="718.701172"/>
     <use xlink:href="#DejaVuSans-74" x="770.800781"/>
     <use xlink:href="#DejaVuSans-65" x="810.009766"/>
     <use xlink:href="#DejaVuSans-70" x="871.533203"/>
    </g>
   </g>
   <g id="legend_1">
    <g id="patch_7">
     <path d="M 270.354375 78.82825 
L 407.72 78.82825 
Q 409.72 78.82825 409.72 76.82825 
L 409.72 48.472 
Q 409.72 46.472 407.72 46.472 
L 270.354375 46.472 
Q 268.354375 46.472 268.354375 48.472 
L 268.354375 76.82825 
Q 268.354375 78.82825 270.354375 78.82825 
z
" style="fill: #ffffff; opacity: 0.8; stroke: #cccccc; stroke-linejoin: miter"/>
    </g>
    <g id="line2d_35">
     <path d="M 272.354375 54.570437 
L 282.354375 54.570437 
L 292.354375 54.570437 
" style="fill: none; stroke: #1f77b4; stroke-width: 1.5; stroke-linecap: square"/>
    </g>
    <g id="text_20">
     <!-- Curvature Filter Time -->
     <g transform="translate(300.354375 58.070437)scale(0.1 -0.1)">
      <defs>
       <path id="DejaVuSans-43" d="M 4122 4306 
L 4122 3641 
Q 3803 3938 3442 4084 
Q 3081 4231 2675 4231 
Q 1875 4231 1450 3742 
Q 1025 3253 1025 2328 
Q 1025 1406 1450 917 
Q 1875 428 2675 428 
Q 3081 428 3442 575 
Q 3803 722 4122 1019 
L 4122 359 
Q 3791 134 3420 21 
Q 3050 -91 2638 -91 
Q 1578 -91 968 557 
Q 359 1206 359 2328 
Q 359 3453 968 4101 
Q 1578 4750 2638 4750 
Q 3056 4750 3426 4639 
Q 3797 4528 4122 4306 
z
" transform="scale(0.015625)"/>
       <path id="DejaVuSans-75" d="M 544 1381 
L 544 3500 
L 1119 3500 
L 1119 1403 
Q 1119 906 1312 657 
Q 1506 409 1894 409 
Q 2359 409 2629 706 
Q 2900 1003 2900 1516 
L 2900 3500 
L 3475 3500 
L 3475 0 
L 2900 0 
L 2900 538 
Q 2691 219 2414 64 
Q 2138 -91 1772 -91 
Q 1169 -91 856 284 
Q 544 659 544 1381 
z
M 1991 3584 
L 1991 3584 
z
" transform="scale(0.015625)"/>
       <path id="DejaVuSans-76" d="M 191 3500 
L 800 3500 
L 1894 563 
L 2988 3500 
L 3597 3500 
L 2284 0 
L 1503 0 
L 191 3500 
z
" transform="scale(0.015625)"/>
       <path id="DejaVuSans-46" d="M 628 4666 
L 3309 4666 
L 3309 4134 
L 1259 4134 
L 1259 2759 
L 3109 2759 
L 3109 2228 
L 1259 2228 
L 1259 0 
L 628 0 
L 628 4666 
z
" transform="scale(0.015625)"/>
       <path id="DejaVuSans-6c" d="M 603 4863 
L 1178 4863 
L 1178 0 
L 603 0 
L 603 4863 
z
" transform="scale(0.015625)"/>
      </defs>
      <use xlink:href="#DejaVuSans-43"/>
      <use xlink:href="#DejaVuSans-75" x="69.824219"/>
      <use xlink:href="#DejaVuSans-72" x="133.203125"/>
      <use xlink:href="#DejaVuSans-76" x="174.316406"/>
      <use xlink:href="#DejaVuSans-61" x="233.496094"/>
      <use xlink:href="#DejaVuSans-74" x="294.775391"/>
      <use xlink:href="#DejaVuSans-75" x="333.984375"/>
      <use xlink:href="#DejaVuSans-72" x="397.363281"/>
      <use xlink:href="#DejaVuSans-65" x="436.226562"/>
      <use xlink:href="#DejaVuSans-20" x="497.75"/>
      <use xlink:href="#DejaVuSans-46" x="529.537109"/>
      <use xlink:href="#DejaVuSans-69" x="579.806641"/>
      <use xlink:href="#DejaVuSans-6c" x="607.589844"/>
      <use xlink:href="#DejaVuSans-74" x="635.373047"/>
      <use xlink:href="#DejaVuSans-65" x="674.582031"/>
      <use xlink:href="#DejaVuSans-72" x="736.105469"/>
      <use xlink:href="#DejaVuSans-20" x="777.21875"/>
      <use xlink:href="#DejaVuSans-54" x="809.005859"/>
      <use xlink:href="#DejaVuSans-69" x="866.964844"/>
      <use xlink:href="#DejaVuSans-6d" x="894.748047"/>
      <use xlink:href="#DejaVuSans-65" x="992.160156"/>
     </g>
    </g>
    <g id="line2d_36">
     <path d="M 272.354375 69.248562 
L 282.354375 69.248562 
L 292.354375 69.248562 
" style="fill: none; stroke: #ff7f0e; stroke-width: 1.5; stroke-linecap: square"/>
    </g>
    <g id="text_21">
     <!-- Particel Filter Time -->
     <g transform="translate(300.354375 72.748562)scale(0.1 -0.1)">
      <defs>
       <path id="DejaVuSans-50" d="M 1259 4147 
L 1259 2394 
L 2053 2394 
Q 2494 2394 2734 2622 
Q 2975 2850 2975 3272 
Q 2975 3691 2734 3919 
Q 2494 4147 2053 4147 
L 1259 4147 
z
M 628 4666 
L 2053 4666 
Q 2838 4666 3239 4311 
Q 3641 3956 3641 3272 
Q 3641 2581 3239 2228 
Q 2838 1875 2053 1875 
L 1259 1875 
L 1259 0 
L 628 0 
L 628 4666 
z
" transform="scale(0.015625)"/>
      </defs>
      <use xlink:href="#DejaVuSans-50"/>
      <use xlink:href="#DejaVuSans-61" x="55.802734"/>
      <use xlink:href="#DejaVuSans-72" x="117.082031"/>
      <use xlink:href="#DejaVuSans-74" x="158.195312"/>
      <use xlink:href="#DejaVuSans-69" x="197.404297"/>
      <use xlink:href="#DejaVuSans-63" x="225.1875"/>
      <use xlink:href="#DejaVuSans-65" x="280.167969"/>
      <use xlink:href="#DejaVuSans-6c" x="341.691406"/>
      <use xlink:href="#DejaVuSans-20" x="369.474609"/>
      <use xlink:href="#DejaVuSans-46" x="401.261719"/>
      <use xlink:href="#DejaVuSans-69" x="451.53125"/>
      <use xlink:href="#DejaVuSans-6c" x="479.314453"/>
      <use xlink:href="#DejaVuSans-74" x="507.097656"/>
      <use xlink:href="#DejaVuSans-65" x="546.306641"/>
      <use xlink:href="#DejaVuSans-72" x="607.830078"/>
      <use xlink:href="#DejaVuSans-20" x="648.943359"/>
      <use xlink:href="#DejaVuSans-54" x="680.730469"/>
      <use xlink:href="#DejaVuSans-69" x="738.689453"/>
      <use xlink:href="#DejaVuSans-6d" x="766.472656"/>
      <use xlink:href="#DejaVuSans-65" x="863.884766"/>
     </g>
    </g>
   </g>
  </g>
 </g>
 <defs>
  <clipPath id="pe0b520f515">
   <rect x="57.6" y="41.472" width="357.12" height="266.112"/>
  </clipPath>
 </defs>
</svg>
